<svg xmlns="http://www.w3.org/2000/svg" width="45.752" height="41.307" viewBox="0 0 45.752 41.307">
  <metadata><?xpacket begin="﻿" id="W5M0MpCehiHzreSzNTczkc9d"?>
<x:xmpmeta xmlns:x="adobe:ns:meta/" x:xmptk="Adobe XMP Core 8.0-c001 1.000000, 0000/00/00-00:00:00        ">
   <rdf:RDF xmlns:rdf="http://www.w3.org/1999/02/22-rdf-syntax-ns#">
      <rdf:Description rdf:about=""
            xmlns:dc="http://purl.org/dc/elements/1.1/"
            xmlns:epsilon="http://epsilon.info/dam/1.0">
         <dc:format>image/svg+xml</dc:format>
         <dc:modified>2025-11-13T03:13:55.916Z</dc:modified>
         <epsilon:expirationstatus>NO</epsilon:expirationstatus>
      </rdf:Description>
   </rdf:RDF>
</x:xmpmeta>
                                                                                                    
                                                                                                    
                                                                                                    
                                                                                                    
                                                                                                    
                                                                                                    
                                                                                                    
                                                                                                    
                                                                                                    
                                                                                                    
                                                                                                    
                                                                                                    
                                                                                                    
                                                                                                    
                                                                                                    
                                                                                                    
                                                                                                    
                                                                                                    
                                                                                                    
                                                                                                    
                           
<?xpacket end="w"?></metadata>
<g id="_3-icy-road" data-name="3-icy-road" transform="translate(-2326.977 -317.695)">
    <g id="icon" transform="translate(2523.977 416.078)">
      <path id="Path_616" data-name="Path 616" d="M45.752,18.964H37.887l4.9-4.9-2.373-2.383-7.3,7.285H25.783l4-6.912,9.068-2.425-.87-3.254L32.166,7.928l3.606-6.249L32.85,0,28.912,6.808,27.12.1l-3.254.87,2.674,9.959-3.668,6.352-3.99-6.912L21.306,1.3,18.063.425,16.5,6.249,12.891,0,9.979,1.679,13.917,8.5,7.2,6.694l-.87,3.254,9.959,2.663,3.668,6.352h-7.99L5.337,12.332,2.953,14.7l4.259,4.259H0v3.368H7.865L2.953,27.244l2.383,2.383,7.285-7.3h7.337l-3.99,6.912L6.891,31.679l.881,3.254,5.814-1.565L9.979,39.617l2.912,1.689,3.938-6.819,1.793,6.7,3.254-.87-2.663-9.959,3.658-6.352,4,6.922L24.436,40l3.254.87,1.554-5.814,3.606,6.249,2.922-1.689-3.938-6.808,6.7,1.793.87-3.254-9.959-2.663-3.658-6.352h7.979l6.643,6.643,2.373-2.383L38.54,22.332h7.213" transform="translate(-197 -98.382)" fill="#002c5f" fill-rule="evenodd"/>
    </g>
  </g>
</svg>
