<svg id="icon-icy-road-blurb" xmlns="http://www.w3.org/2000/svg" width="120.241" height="108.558" viewBox="0 0 120.241 108.558">
  <path id="Path_616" data-name="Path 616" d="M120.241,49.84H99.57l12.882-12.882-6.237-6.264L87.042,49.84H67.76L78.273,31.674,102.1,25.3l-2.288-8.552L84.537,20.835,94.014,4.412,86.334,0,75.985,17.893,71.273.272,62.722,2.56l7.027,26.173L60.107,45.428,49.622,27.262,55.995,3.4,47.47,1.117,43.358,16.423,33.88,0,26.227,4.412l10.349,17.92L18.928,17.594,16.64,26.145l26.173,7L52.454,49.84h-21l-17.43-17.43L7.762,38.646,18.955,49.84H0v8.851H20.671L7.762,71.6l6.264,6.264L33.172,58.691H52.454L41.969,76.856l-23.858,6.4,2.315,8.552L35.7,87.7l-9.478,16.423,7.653,4.439,10.349-17.92,4.712,17.621,8.552-2.288-7-26.173L60.107,63.1,70.62,81.3l-6.4,23.83,8.552,2.288,4.085-15.279,9.478,16.423,7.68-4.439L83.665,86.225l17.621,4.712,2.288-8.552-26.173-7L67.787,58.691H88.758l17.457,17.457,6.237-6.264L101.286,58.691h18.955" fill="#cecece" fill-rule="evenodd"/>
</svg>
