<svg id="icon-engine-oil-level-blurb" xmlns="http://www.w3.org/2000/svg" width="154.318" height="88.068" viewBox="0 0 154.318 88.068">
  <metadata><?xpacket begin="﻿" id="W5M0MpCehiHzreSzNTczkc9d"?>
<x:xmpmeta xmlns:x="adobe:ns:meta/" x:xmptk="Adobe XMP Core 8.0-c001 1.000000, 0000/00/00-00:00:00        ">
   <rdf:RDF xmlns:rdf="http://www.w3.org/1999/02/22-rdf-syntax-ns#">
      <rdf:Description rdf:about=""
            xmlns:dc="http://purl.org/dc/elements/1.1/"
            xmlns:epsilon="http://epsilon.info/dam/1.0">
         <dc:format>image/svg+xml</dc:format>
         <dc:modified>2025-11-13T03:14:01.753Z</dc:modified>
         <epsilon:expirationstatus>NO</epsilon:expirationstatus>
      </rdf:Description>
   </rdf:RDF>
</x:xmpmeta>
                                                                                                    
                                                                                                    
                                                                                                    
                                                                                                    
                                                                                                    
                                                                                                    
                                                                                                    
                                                                                                    
                                                                                                    
                                                                                                    
                                                                                                    
                                                                                                    
                                                                                                    
                                                                                                    
                                                                                                    
                                                                                                    
                                                                                                    
                                                                                                    
                                                                                                    
                                                                                                    
                           
<?xpacket end="w"?></metadata>
<g id="Group_250" data-name="Group 250">
    <path id="Path_576" data-name="Path 576" d="M42.911,26.458l-.436,1.073-.235,1.14-.1,1.174.872,3.622,2.348,2.583,3.253.973,3.287-.973,2.348-2.583.872-3.622-.1-1.174-.235-1.107-1.174-3.019-.47-2.113-.168-2.113V13.176l-.6-2.415L50.793,9.017l-2.18-.637-2.18.637L44.89,10.761l-.6,2.415-.034,7.144-.168,2.113-.436,2.079-.738,1.912" transform="translate(99.198 19.727)" fill="#cecece" fill-rule="evenodd"/>
    <path id="Path_577" data-name="Path 577" d="M92.4,49.807H35.821V30.488H72.749l7.882,7.647,25.725-6.809h.034L92.37,49.807M26.027,26.463l-14.12-4.7,1.845-7.614,12.276,4.863ZM140.466,11.169,83.28,26.3l-6.842-6.607H61.949V13.315h8.284V2.482H43.9v10.8h8.251v6.373H35.787V11.37L7.043,0,0,29.079l26.027,8.687V60.641H96.965L122.388,27.1l15.06-3.958,3.153,3.488,6.909-7.647L140.5,11.2Z" fill="#cecece" fill-rule="evenodd"/>
    <path id="Path_578" data-name="Path 578" d="M130.923,31.375c-5.735-3.958-12.544-.134-14.12.839s-8.72,5.8-18.984.7c-10.263-5.065-17.24-1.979-19.52-.7-2.247,1.275-11.337,5.8-18.984.839-7.681-4.93-13.751-3.388-19.185-.436-5.4,2.952-10.968,3.79-20.023-.7s-14.456-.7-14.456-.7V24.03s5.4-3.79,14.456.7,14.624,3.656,20.023.7,11.5-4.528,19.185.4c7.647,4.93,16.737.436,18.984-.839,2.281-1.275,9.257-4.36,19.52.7s17.441.268,18.984-.7c1.576-.973,8.352-4.8,14.12-.839v7.178" transform="translate(13.3 52.744)" fill="#cecece" fill-rule="evenodd"/>
  </g>
</svg>
