<svg xmlns="http://www.w3.org/2000/svg" width="63.457" height="36.214" viewBox="0 0 63.457 36.214">
  <metadata><?xpacket begin="﻿" id="W5M0MpCehiHzreSzNTczkc9d"?>
<x:xmpmeta xmlns:x="adobe:ns:meta/" x:xmptk="Adobe XMP Core 8.0-c001 1.000000, 0000/00/00-00:00:00        ">
   <rdf:RDF xmlns:rdf="http://www.w3.org/1999/02/22-rdf-syntax-ns#">
      <rdf:Description rdf:about=""
            xmlns:dc="http://purl.org/dc/elements/1.1/"
            xmlns:epsilon="http://epsilon.info/dam/1.0">
         <dc:format>image/svg+xml</dc:format>
         <dc:modified>2025-11-13T03:13:53.652Z</dc:modified>
         <epsilon:expirationstatus>NO</epsilon:expirationstatus>
      </rdf:Description>
   </rdf:RDF>
</x:xmpmeta>
                                                                                                    
                                                                                                    
                                                                                                    
                                                                                                    
                                                                                                    
                                                                                                    
                                                                                                    
                                                                                                    
                                                                                                    
                                                                                                    
                                                                                                    
                                                                                                    
                                                                                                    
                                                                                                    
                                                                                                    
                                                                                                    
                                                                                                    
                                                                                                    
                                                                                                    
                                                                                                    
                           
<?xpacket end="w"?></metadata>
<g id="_3-engine-oil-level" data-name="3-engine-oil-level" transform="translate(-933.984 -316.515)">
    <g id="icon" transform="translate(933.984 316.515)">
      <g id="Group_218" data-name="Group 218">
        <path id="Path_527" data-name="Path 527" d="M42.457,15.814l-.179.441-.1.469-.041.483L42.5,18.7l.965,1.062,1.338.4,1.352-.4.965-1.062.359-1.49-.041-.483-.1-.455-.483-1.241-.193-.869-.069-.869V10.352l-.248-.993L45.7,8.642l-.9-.262-.9.262-.634.717-.248.993-.014,2.938-.069.869-.179.855-.3.786" transform="translate(15.979 3.178)" fill="#002c5f" fill-rule="evenodd"/>
        <path id="Path_528" data-name="Path 528" d="M38,20.481H14.73V12.537H29.915l3.241,3.145,10.578-2.8h.014l-5.765,7.6m-27.28-9.6L4.9,8.951,5.655,5.82l5.048,2v3.062ZM57.761,4.593l-23.515,6.22L31.432,8.1H25.474V5.475H28.88V1.021H18.054V5.462h3.393v2.62h-6.73V4.675L2.9,0,0,11.958,10.7,15.53v9.406h29.17L50.327,11.144l6.193-1.627,1.3,1.434,2.841-3.145-2.883-3.2Z" fill="#002c5f" fill-rule="evenodd"/>
        <path id="Path_529" data-name="Path 529" d="M57.163,26.094c-2.358-1.627-5.158-.055-5.806.345a7.487,7.487,0,0,1-7.806.29c-4.22-2.083-7.089-.814-8.027-.29s-4.662,2.386-7.806.345a7,7,0,0,0-7.889-.179c-2.22,1.214-4.51,1.558-8.234-.29s-5.944-.29-5.944-.29V23.074s2.22-1.558,5.944.29,6.013,1.5,8.234.29a7,7,0,0,1,7.889.166c3.145,2.027,6.882.179,7.806-.345s3.807-1.793,8.027.29a7.513,7.513,0,0,0,7.806-.29c.648-.4,3.434-1.972,5.806-.345V26.08" transform="translate(2.142 8.496)" fill="#002c5f" fill-rule="evenodd"/>
      </g>
    </g>
  </g>
</svg>
