<svg xmlns="http://www.w3.org/2000/svg" width="57.75" height="40.118" viewBox="0 0 57.75 40.118">
  <metadata><?xpacket begin="﻿" id="W5M0MpCehiHzreSzNTczkc9d"?>
<x:xmpmeta xmlns:x="adobe:ns:meta/" x:xmptk="Adobe XMP Core 8.0-c001 1.000000, 0000/00/00-00:00:00        ">
   <rdf:RDF xmlns:rdf="http://www.w3.org/1999/02/22-rdf-syntax-ns#">
      <rdf:Description rdf:about=""
            xmlns:dc="http://purl.org/dc/elements/1.1/"
            xmlns:epsilon="http://epsilon.info/dam/1.0">
         <dc:format>image/svg+xml</dc:format>
         <dc:modified>2025-11-13T03:14:07.471Z</dc:modified>
         <epsilon:expirationstatus>NO</epsilon:expirationstatus>
      </rdf:Description>
   </rdf:RDF>
</x:xmpmeta>
                                                                                                    
                                                                                                    
                                                                                                    
                                                                                                    
                                                                                                    
                                                                                                    
                                                                                                    
                                                                                                    
                                                                                                    
                                                                                                    
                                                                                                    
                                                                                                    
                                                                                                    
                                                                                                    
                                                                                                    
                                                                                                    
                                                                                                    
                                                                                                    
                                                                                                    
                                                                                                    
                           
<?xpacket end="w"?></metadata>
<g id="_3-parking-brake" data-name="3-parking-brake" transform="translate(-399.466 -312.289)">
    <g id="icon" transform="translate(404.657 315.896)">
      <g id="Group_195" data-name="Group 195" transform="translate(-5.192 -3.607)">
        <path id="Path_477" data-name="Path 477" d="M13.213,0a9.6,9.6,0,1,0,9.6,9.6,9.607,9.607,0,0,0-9.6-9.6m0,17.279A7.676,7.676,0,1,1,20.889,9.6a7.678,7.678,0,0,1-7.676,7.676" transform="translate(0.633)" fill="#002c5f"/>
        <path id="Path_478" data-name="Path 478" d="M2.8,9.577A10.936,10.936,0,0,1,6.019,1.819L4.468.15a13.254,13.254,0,0,0,.024,18.878l1.528-1.693A10.936,10.936,0,0,1,2.8,9.577" transform="translate(0.093 0.026)" fill="#002c5f"/>
        <path id="Path_479" data-name="Path 479" d="M23.942,9.577A13.271,13.271,0,0,0,20.016.15L18.394,1.843a10.954,10.954,0,0,1-.024,15.469L19.992,19a13.25,13.25,0,0,0,3.95-9.439" transform="translate(3.223 0.026)" fill="#002c5f"/>
        <path id="Path_480" data-name="Path 480" d="M38.423,0a9.6,9.6,0,1,0,9.6,9.6,9.607,9.607,0,0,0-9.6-9.6m0,17.279A7.676,7.676,0,1,1,46.1,9.6a7.678,7.678,0,0,1-7.676,7.676" transform="translate(5.057)" fill="#002c5f"/>
        <path id="Path_481" data-name="Path 481" d="M28.009,9.575a10.936,10.936,0,0,1,3.221-7.758L29.666.16A13.268,13.268,0,0,0,29.7,19.038l1.528-1.693a10.936,10.936,0,0,1-3.221-7.758" transform="translate(4.516 0.028)" fill="#002c5f"/>
        <path id="Path_482" data-name="Path 482" d="M49.152,9.577A13.271,13.271,0,0,0,45.226.15L43.6,1.843a10.954,10.954,0,0,1-.024,15.469L45.2,19a13.25,13.25,0,0,0,3.95-9.439" transform="translate(7.646 0.026)" fill="#002c5f"/>
        <path id="Path_483" data-name="Path 483" d="M13.013,10a1.081,1.081,0,1,1-2.163,0V4.161a1.081,1.081,0,1,1,2.163,0" transform="translate(1.904 0.54)" fill="#002c5f"/>
        <path id="Path_484" data-name="Path 484" d="M13.059,12.6a1.134,1.134,0,0,1-2.269,0,1.141,1.141,0,0,1,1.14-1.14,1.124,1.124,0,0,1,1.128,1.14" transform="translate(1.893 2.011)" fill="#002c5f"/>
        <path id="Path_485" data-name="Path 485" d="M39.069,3.31H34.72V14.277h1.763V9.657h2.962a3.164,3.164,0,0,0,2.939-3.233c0-3.021-3.327-3.115-3.327-3.115m.071,4.643H36.495V5.108h2.574s1.563-.059,1.563,1.411a1.424,1.424,0,0,1-1.5,1.434" transform="translate(6.092 0.581)" fill="#002c5f"/>
        <path id="Path_486" data-name="Path 486" d="M43.783,33.775V28.744h6.054V25.629H43.783v-4.1h6.5V18.4H41.35V36.89H50.5V33.775" transform="translate(7.255 3.228)" fill="#002c5f"/>
        <path id="Path_487" data-name="Path 487" d="M37.131,25.429,41.668,18.4h-3.3l-4.091,6.818-.823,1.364V18.4H31.03V36.89h2.421V31.142l1.928-2.986,3.315,8.734h3.185" transform="translate(5.444 3.228)" fill="#002c5f"/>
        <path id="Path_488" data-name="Path 488" d="M29.067,36.89h2.61L26.916,18.4H24.283L19.64,36.89h2.61l1.058-4.22h4.678m-3.9-3.15L25.6,22.749l1.563,6.771h-3.08Z" transform="translate(3.446 3.228)" fill="#002c5f"/>
        <path id="Path_489" data-name="Path 489" d="M17.522,30.392a4.4,4.4,0,0,0-1.352-1.681s3.209-.212,3.15-5.3c-.071-5.572-4.49-5.007-4.49-5.007H9.47v18.49h2.421v-7.7c2.245-.165,2.692,1.352,2.692,1.352l2.786,6.347h2.9s-2.245-5.384-2.762-6.5m-3.044-4.2H11.891v-4.7h2.551a2.079,2.079,0,0,1,2.374,2.3c.035,2.786-2.339,2.4-2.339,2.4" transform="translate(1.662 3.226)" fill="#002c5f"/>
        <path id="Path_490" data-name="Path 490" d="M7.817,27.041a5.093,5.093,0,0,0,1.7-4.138c-.094-4.913-4.255-4.5-4.255-4.5H0v18.49H2.421c.588,0,1.928-.012,3.714-.059,2.433-.059,4.02-1.8,3.985-5.325s-2.3-4.467-2.3-4.467M4.761,21.493a2.033,2.033,0,0,1,2.4,2.069,2.02,2.02,0,0,1-1.975,2.222H2.421V21.5H4.761ZM5.3,33.753H2.421v-4.9c.4-.012,1.07-.035,1.975-.012,1.469.024,3.115-.153,3.174,2.539s-2.28,2.374-2.28,2.374" transform="translate(0 3.227)" fill="#002c5f"/>
      </g>
    </g>
  </g>
</svg>
