<svg xmlns="http://www.w3.org/2000/svg" width="163.694" height="99.515" viewBox="0 0 163.694 99.515">
  <metadata><?xpacket begin="﻿" id="W5M0MpCehiHzreSzNTczkc9d"?>
<x:xmpmeta xmlns:x="adobe:ns:meta/" x:xmptk="Adobe XMP Core 8.0-c001 1.000000, 0000/00/00-00:00:00        ">
   <rdf:RDF xmlns:rdf="http://www.w3.org/1999/02/22-rdf-syntax-ns#">
      <rdf:Description rdf:about=""
            xmlns:dc="http://purl.org/dc/elements/1.1/"
            xmlns:epsilon="http://epsilon.info/dam/1.0">
         <dc:format>image/svg+xml</dc:format>
         <dc:modified>2025-11-13T03:13:54.898Z</dc:modified>
         <epsilon:expirationstatus>NO</epsilon:expirationstatus>
      </rdf:Description>
   </rdf:RDF>
</x:xmpmeta>
                                                                                                    
                                                                                                    
                                                                                                    
                                                                                                    
                                                                                                    
                                                                                                    
                                                                                                    
                                                                                                    
                                                                                                    
                                                                                                    
                                                                                                    
                                                                                                    
                                                                                                    
                                                                                                    
                                                                                                    
                                                                                                    
                                                                                                    
                                                                                                    
                                                                                                    
                                                                                                    
                           
<?xpacket end="w"?></metadata>
<g id="icom-auto-hold-blurb" transform="translate(0 0.01)">
    <g id="Group_252" data-name="Group 252" transform="translate(0 -0.01)">
      <path id="Path_583" data-name="Path 583" d="M16.359.1,0,44.584H7.282l3.444-9.291H32.251l3.444,9.291H42.87L26.726.1M12.735,29.912l8.43-23.354h.466l8.646,23.354Z" transform="translate(0 0.295)" fill="#cecece"/>
      <path id="Path_584" data-name="Path 584" d="M14.663,39.777l1.65,1.865c4.771,4.09,17.507,3.659,23.749,2.726l1.076-.179h0l3.193-1.076L46.7,41.678l1.614-1.865.969-2.3.646-5.991V.1h-7.1V31.526l-.538,3.444-1.758,2.224-2.009.9-7,.717-7-.717-2.045-.9L20.8,34.97l-.61-3.444V.1H13.12V31.526l.287,4.269.287,1.686" transform="translate(33.947 0.295)" fill="#cecece"/>
      <path id="Path_585" data-name="Path 585" d="M24.62,6.091H38.4V44.62h7.031V6.091H59.239V.1H24.62" transform="translate(63.703 0.295)" fill="#cecece"/>
      <path id="Path_586" data-name="Path 586" d="M72.788,18.358l-.179-4.233L72.429,11.4,71.64,7.416,70.133,4.4,67.766,2.286,64.429.959,59.909.241,53.954-.01,47.963.241l-4.52.717C35.766,3,35.586,8.923,35.264,15.631L35.12,19.9v7l.179,4.3c.395,6.278,1.22,11.229,8.143,13.094l4.52.717,5.991.251c9.184-.323,17.4.036,18.439-11.265l.251-4.269.179-4.269V22.7m-7.211,4.233-.179,4.3-.466,2.834-.9,2.188-1.435,1.435-1.973.933-2.368.359-4.269.179h-2.26l-4.2-.538-2.045-.933-1.435-1.435-.9-2.188-.5-2.834-.215-4.3L42.4,22.663l.072-4.3.179-4.269.466-2.834.9-2.152,1.507-1.435,2.045-.933,2.224-.359L54.026,6.2c4.52,0,9.543-.179,10.906,5.058l.5,2.834.251,4.269.072,4.3-.072,4.269Z" transform="translate(90.871 0.01)" fill="#cecece"/>
      <path id="Path_587" data-name="Path 587" d="M31.187,34.028H8.227V15.23H1.16V59.714H8.227V40.091h22.96V59.714h7.067V15.23H31.187" transform="translate(3.001 39.442)" fill="#cecece"/>
      <path id="Path_588" data-name="Path 588" d="M50.707,29.2l-.179-2.762v.072l-.789-3.982-1.507-3.013L45.864,17.4l-3.3-1.327-4.52-.717-5.955-.215-5.955.215-4.448.717-3.3,1.327-2.368,2.117L14.51,22.53l-.789,3.982V26.44l-.287,4.269-.143,4.269V37.7l.072,4.269.179,4.269.179,2.762.789,3.874,1.507,3.013,2.368,2.117,3.3,1.327,4.448.717,5.955.251c17.076-.108,18.691-3.767,18.87-19.839V37.7l-.072-4.269m-7.175,8.538-.179,4.269-.5,2.834-.9,2.188-1.4,1.435-2.045.9-2.368.359-4.269.179H29.828L25.595,53.6l-2.045-.9-1.435-1.435-.9-2.188-.466-2.834L20.5,41.974,20.429,37.7l.072-4.269.179-4.269.5-2.834.9-2.152,1.507-1.435,2.045-.9,2.224-.359,4.233-.179c4.52,0,9.543-.179,10.906,5.058L43.46,29.2l.251,4.269.072,4.269-.072,4.269Z" transform="translate(34.387 39.21)" fill="#cecece"/>
      <path id="Path_589" data-name="Path 589" d="M32.653,15.23h-7.1V59.714h29.7V53.759h-22.6" transform="translate(66.109 39.442)" fill="#cecece"/>
      <path id="Path_590" data-name="Path 590" d="M71.462,27.535,70.135,23.66c-3.91-7.677-12.377-8.359-20.018-8.43H35.05V59.75H51.875c17.112.072,20.735-6.278,20.628-22.242l-.251-5.381m-7.677,13.6-.9,2.834-1.363,2.117-1.865,1.435-2.4.969-6.744.646H42.153V21.149h7.426c9.22,0,14.457,1.973,15.569,11.7l.251,4.592-.717,8.251Z" transform="translate(90.689 39.442)" fill="#cecece"/>
    </g>
  </g>
</svg>
