<svg xmlns="http://www.w3.org/2000/svg" width="58.07" height="21.961" viewBox="0 0 58.07 21.961">
  <metadata><?xpacket begin="﻿" id="W5M0MpCehiHzreSzNTczkc9d"?>
<x:xmpmeta xmlns:x="adobe:ns:meta/" x:xmptk="Adobe XMP Core 8.0-c001 1.000000, 0000/00/00-00:00:00        ">
   <rdf:RDF xmlns:rdf="http://www.w3.org/1999/02/22-rdf-syntax-ns#">
      <rdf:Description rdf:about=""
            xmlns:dc="http://purl.org/dc/elements/1.1/"
            xmlns:epsilon="http://epsilon.info/dam/1.0">
         <dc:format>image/svg+xml</dc:format>
         <dc:modified>2025-11-13T03:13:58.369Z</dc:modified>
         <epsilon:expirationstatus>NO</epsilon:expirationstatus>
      </rdf:Description>
   </rdf:RDF>
</x:xmpmeta>
                                                                                                    
                                                                                                    
                                                                                                    
                                                                                                    
                                                                                                    
                                                                                                    
                                                                                                    
                                                                                                    
                                                                                                    
                                                                                                    
                                                                                                    
                                                                                                    
                                                                                                    
                                                                                                    
                                                                                                    
                                                                                                    
                                                                                                    
                                                                                                    
                                                                                                    
                                                                                                    
                           
<?xpacket end="w"?></metadata>
<g id="_3-epb" data-name="3-epb" transform="translate(-752.43 -325.641)">
    <g id="icon" transform="translate(752.43 325.641)">
      <g id="Group_242" data-name="Group 242">
        <path id="Path_532" data-name="Path 532" d="M0,0H15.811V3.327H3.844V9.076H14.916v3.132H3.844v6.425H16.018v3.327H0" fill="#002c5f"/>
        <path id="Path_533" data-name="Path 533" d="M16.89,0h9.684c6.265,0,7.47,4.062,7.47,6.793s-1.2,6.77-7.47,6.735h-5.84V21.95H16.89M20.734,10.4h5.622c1.721,0,3.844-.861,3.844-3.626s-1.756-3.626-3.786-3.626H20.722v7.263Z" transform="translate(2.49)" fill="#002c5f"/>
        <path id="Path_534" data-name="Path 534" d="M34.77,0H45.441c3.936,0,6.517,1.778,6.517,5.439a4.847,4.847,0,0,1-3.132,4.681v.057c2.673.585,4.119,2.673,4.119,5.657,0,3.442-2.4,6.127-8.089,6.127H34.77M38.614,9.191H44.89A2.944,2.944,0,0,0,48.126,6.15c0-2.214-1.136-3.018-3.236-3.018H38.614Zm0,9.627h6.793c2.341,0,3.695-1.262,3.695-3.477s-1.354-3.385-3.695-3.385H38.614v6.861Z" transform="translate(5.125)" fill="#002c5f"/>
      </g>
    </g>
  </g>
</svg>
