<svg id="iocn-epb-blurb" xmlns="http://www.w3.org/2000/svg" width="182.721" height="69.102" viewBox="0 0 182.721 69.102">
  <g id="Group_251" data-name="Group 251">
    <path id="Path_580" data-name="Path 580" d="M0,0H49.751V10.47H12.095V28.558h34.84v9.856H12.095V58.632H50.4V69.1H0" fill="#cecece"/>
    <path id="Path_581" data-name="Path 581" d="M16.89,0H47.361c19.713,0,23.5,12.781,23.5,21.373s-3.791,21.3-23.5,21.193H28.985v26.5H16.89M28.985,32.71H46.676C52.091,32.71,58.77,30,58.77,21.3S53.246,9.892,46.856,9.892H28.949V32.746Z" transform="translate(44.089)" fill="#cecece"/>
    <path id="Path_582" data-name="Path 582" d="M34.77,0H68.346C80.73,0,88.853,5.6,88.853,17.113c0,6.968-3.574,11.986-9.856,14.73v.181c8.412,1.841,12.961,8.412,12.961,17.8,0,10.831-7.546,19.279-25.453,19.279H34.77M46.865,28.919H66.613c5.813,0,10.181-3.394,10.181-9.567,0-6.968-3.574-9.5-10.181-9.5H46.865Zm0,30.291H68.238c7.365,0,11.625-3.971,11.625-10.939S75.6,37.62,68.238,37.62H46.865V59.21Z" transform="translate(90.762)" fill="#cecece"/>
  </g>
</svg>
