<svg xmlns="http://www.w3.org/2000/svg" width="145.615" height="101.157" viewBox="0 0 145.615 101.157">
  <metadata><?xpacket begin="﻿" id="W5M0MpCehiHzreSzNTczkc9d"?>
<x:xmpmeta xmlns:x="adobe:ns:meta/" x:xmptk="Adobe XMP Core 8.0-c001 1.000000, 0000/00/00-00:00:00        ">
   <rdf:RDF xmlns:rdf="http://www.w3.org/1999/02/22-rdf-syntax-ns#">
      <rdf:Description rdf:about=""
            xmlns:dc="http://purl.org/dc/elements/1.1/"
            xmlns:epsilon="http://epsilon.info/dam/1.0">
         <dc:format>image/svg+xml</dc:format>
         <dc:modified>2025-11-13T03:14:00.939Z</dc:modified>
         <epsilon:expirationstatus>NO</epsilon:expirationstatus>
      </rdf:Description>
   </rdf:RDF>
</x:xmpmeta>
                                                                                                    
                                                                                                    
                                                                                                    
                                                                                                    
                                                                                                    
                                                                                                    
                                                                                                    
                                                                                                    
                                                                                                    
                                                                                                    
                                                                                                    
                                                                                                    
                                                                                                    
                                                                                                    
                                                                                                    
                                                                                                    
                                                                                                    
                                                                                                    
                                                                                                    
                                                                                                    
                           
<?xpacket end="w"?></metadata>
<g id="icon-parking-brake-blurb" transform="translate(5.192 3.607)">
    <g id="Group_195" data-name="Group 195" transform="translate(-5.192 -3.607)">
      <path id="Path_477" data-name="Path 477" d="M27.825,0A24.215,24.215,0,1,0,52.04,24.215,24.223,24.223,0,0,0,27.825,0m0,43.569A19.354,19.354,0,1,1,47.179,24.215,19.359,19.359,0,0,1,27.825,43.569" transform="translate(7.09)" fill="#cecece"/>
      <path id="Path_478" data-name="Path 478" d="M6.25,23.92A27.574,27.574,0,0,1,14.371,4.359L10.459.15a33.419,33.419,0,0,0,.059,47.6l3.853-4.268A27.574,27.574,0,0,1,6.25,23.92" transform="translate(1.041 0.295)" fill="#cecece"/>
      <path id="Path_479" data-name="Path 479" d="M32.419,23.92A33.462,33.462,0,0,0,22.519.15l-4.09,4.268a27.463,27.463,0,0,1,8.032,19.473A27.53,27.53,0,0,1,18.37,43.422l4.09,4.268a33.409,33.409,0,0,0,9.959-23.8" transform="translate(36.076 0.295)" fill="#cecece"/>
      <path id="Path_480" data-name="Path 480" d="M53.035,0A24.215,24.215,0,1,0,77.25,24.215,24.223,24.223,0,0,0,53.035,0m0,43.569A19.354,19.354,0,1,1,72.389,24.215,19.359,19.359,0,0,1,53.035,43.569" transform="translate(56.599)" fill="#cecece"/>
      <path id="Path_481" data-name="Path 481" d="M31.46,23.9A27.574,27.574,0,0,1,39.581,4.339L35.639.16a33.454,33.454,0,0,0,.089,47.6l3.853-4.268A27.574,27.574,0,0,1,31.46,23.93" transform="translate(50.55 0.314)" fill="#cecece"/>
      <path id="Path_482" data-name="Path 482" d="M57.629,23.92A33.462,33.462,0,0,0,47.729.15l-4.09,4.268a27.62,27.62,0,0,1-.059,39l4.09,4.268a33.409,33.409,0,0,0,9.959-23.8" transform="translate(85.585 0.295)" fill="#cecece"/>
      <path id="Path_483" data-name="Path 483" d="M16.3,20.537a2.727,2.727,0,1,1-5.454,0V5.807a2.727,2.727,0,1,1,5.454,0" transform="translate(21.308 6.049)" fill="#cecece"/>
      <path id="Path_484" data-name="Path 484" d="M16.51,14.335a2.86,2.86,0,0,1-5.72,0,2.878,2.878,0,0,1,2.875-2.875,2.834,2.834,0,0,1,2.845,2.875" transform="translate(21.19 22.506)" fill="#cecece"/>
      <path id="Path_485" data-name="Path 485" d="M45.686,3.31H34.72V30.963h4.446V19.315h7.469s7.41-.533,7.41-8.151S45.657,3.31,45.657,3.31m.178,11.707H39.2V7.845h6.491S49.628,7.7,49.628,11.4s-3.794,3.616-3.794,3.616" transform="translate(68.185 6.5)" fill="#cecece"/>
      <path id="Path_486" data-name="Path 486" d="M47.485,57.167V44.482H62.749V36.628H47.485V26.284h16.39V18.4H41.35V65.022H64.409V57.167" transform="translate(81.206 36.135)" fill="#cecece"/>
      <path id="Path_487" data-name="Path 487" d="M46.412,36.124,57.853,18.4H49.525L39.21,35.59l-2.075,3.438V18.4H31.03V65.022h6.106V50.528L42,43l8.358,22.022h8.032" transform="translate(60.939 36.135)" fill="#cecece"/>
      <path id="Path_488" data-name="Path 488" d="M43.41,65.022h6.58l-12-46.622H31.347L19.64,65.022h6.58l2.667-10.64h11.8m-9.84-7.943,3.823-17.072,3.942,17.072H30.843Z" transform="translate(38.57 36.135)" fill="#cecece"/>
      <path id="Path_489" data-name="Path 489" d="M29.772,48.658a11.1,11.1,0,0,0-3.408-4.238s8.091-.533,7.943-13.367C34.129,17,22.985,18.427,22.985,18.427H9.47V65.048h6.106V45.635c5.661-.415,6.787,3.408,6.787,3.408l7.024,16h7.321s-5.661-13.575-6.965-16.39M22.066,38.077H15.576V26.222h6.432s5.9-.83,5.987,5.809c.089,7.024-5.9,6.046-5.9,6.046" transform="translate(18.598 36.108)" fill="#cecece"/>
      <path id="Path_490" data-name="Path 490" d="M19.71,40.2c4.92-4,4.3-10.433,4.3-10.433C23.77,17.377,13.278,18.414,13.278,18.414H0V65.036H6.106c1.482,0,4.861-.03,9.366-.148,6.135-.148,10.136-4.535,10.048-13.426C25.46,42.54,19.71,40.2,19.71,40.2M12,26.209c.771,0,6.046-.385,6.046,5.216s-4.979,5.6-4.979,5.6H6.106V26.239H12Zm1.363,30.913H6.106V44.763c1.008-.03,2.7-.089,4.979-.03,3.7.059,7.854-.385,8,6.4.148,6.817-5.75,5.987-5.75,5.987" transform="translate(0 36.121)" fill="#cecece"/>
    </g>
  </g>
</svg>
