<svg xmlns="http://www.w3.org/2000/svg" width="55.175" height="33.543" viewBox="0 0 55.175 33.543">
  <metadata><?xpacket begin="﻿" id="W5M0MpCehiHzreSzNTczkc9d"?>
<x:xmpmeta xmlns:x="adobe:ns:meta/" x:xmptk="Adobe XMP Core 8.0-c001 1.000000, 0000/00/00-00:00:00        ">
   <rdf:RDF xmlns:rdf="http://www.w3.org/1999/02/22-rdf-syntax-ns#">
      <rdf:Description rdf:about=""
            xmlns:dc="http://purl.org/dc/elements/1.1/"
            xmlns:epsilon="http://epsilon.info/dam/1.0">
         <dc:format>image/svg+xml</dc:format>
         <dc:modified>2025-11-13T03:14:07.550Z</dc:modified>
         <epsilon:expirationstatus>NO</epsilon:expirationstatus>
      </rdf:Description>
   </rdf:RDF>
</x:xmpmeta>
                                                                                                    
                                                                                                    
                                                                                                    
                                                                                                    
                                                                                                    
                                                                                                    
                                                                                                    
                                                                                                    
                                                                                                    
                                                                                                    
                                                                                                    
                                                                                                    
                                                                                                    
                                                                                                    
                                                                                                    
                                                                                                    
                                                                                                    
                                                                                                    
                                                                                                    
                                                                                                    
                           
<?xpacket end="w"?></metadata>
<g id="auto-hold" transform="translate(0 0.01)">
    <g id="Group_243" data-name="Group 243" transform="translate(0 -0.01)">
      <path id="Path_535" data-name="Path 535" d="M5.514.1,0,15.094H2.455l1.161-3.132H10.87l1.161,3.132H14.45L9.008.1M4.293,10.148,7.134,2.277h.157l2.914,7.872Z" transform="translate(0 0.033)" fill="#a3a3a3"/>
      <path id="Path_536" data-name="Path 536" d="M13.64,13.473l.556.629c1.608,1.378,5.9,1.233,8,.919l.363-.06h0L23.64,14.6l.8-.484.544-.629.326-.774.218-2.019V.1H23.132V10.692l-.181,1.161-.592.75-.677.3-2.358.242-2.358-.242-.689-.3-.568-.75L15.5,10.692V.1H13.12V10.692l.1,1.439.1.568" transform="translate(2.744 0.033)" fill="#a3a3a3"/>
      <path id="Path_537" data-name="Path 537" d="M24.62,2.119h4.643V15.106h2.37V2.119h4.655V.1H24.62" transform="translate(5.15 0.033)" fill="#a3a3a3"/>
      <path id="Path_538" data-name="Path 538" d="M47.816,6.181l-.06-1.427-.06-.919-.266-1.342-.508-1.016-.8-.713L45,.316,43.475.075,41.468-.01,39.449.075,37.925.316C35.338,1.006,35.277,3,35.168,5.262L35.12,6.7V9.059l.06,1.451c.133,2.116.411,3.785,2.745,4.413l1.524.242,2.019.085c3.1-.109,5.865.012,6.215-3.8l.085-1.439.06-1.439V7.644M45.4,9.071l-.06,1.451-.157.955-.3.738-.484.484-.665.314-.8.121-1.439.06h-.762l-1.415-.181-.689-.314-.484-.484-.3-.738-.169-.955L37.6,9.071l-.024-1.439L37.6,6.181l.06-1.439.157-.955.3-.726.508-.484.689-.314.75-.121,1.427-.06c1.524,0,3.216-.06,3.676,1.7l.169.955.085,1.439.024,1.451-.024,1.439Z" transform="translate(7.346 0.01)" fill="#a3a3a3"/>
      <path id="Path_539" data-name="Path 539" d="M11.281,21.566H3.542V15.23H1.16V30.224H3.542V23.61h7.739v6.614h2.382V15.23H11.281" transform="translate(0.243 3.198)" fill="#a3a3a3"/>
      <path id="Path_540" data-name="Path 540" d="M25.9,19.88l-.06-.931v.024l-.266-1.342-.508-1.016-.8-.713-1.112-.447-1.524-.242-2.007-.073-2.007.073-1.5.242-1.112.447-.8.713L13.7,17.631l-.266,1.342v-.024l-.1,1.439-.048,1.439v.919l.024,1.439.06,1.439.06.931.266,1.306.508,1.016.8.713,1.112.447,1.5.242,2.007.085c5.756-.036,6.3-1.27,6.36-6.687v-.931l-.024-1.439m-2.418,2.878-.06,1.439-.169.955-.3.738-.472.484-.689.3-.8.121-1.439.06h-.75L17.437,28.1l-.689-.3-.484-.484-.3-.738-.157-.955-.085-1.439L15.7,22.746l.024-1.439.06-1.439.169-.955.3-.726.508-.484.689-.3.75-.121,1.427-.06c1.524,0,3.216-.06,3.676,1.7l.157.955.085,1.439.024,1.439L23.544,24.2Z" transform="translate(2.78 3.179)" fill="#a3a3a3"/>
      <path id="Path_541" data-name="Path 541" d="M27.944,15.23H25.55V30.224H35.562V28.217H27.944" transform="translate(5.344 3.198)" fill="#a3a3a3"/>
      <path id="Path_542" data-name="Path 542" d="M47.323,19.377l-.447-1.306c-1.318-2.588-4.172-2.817-6.747-2.842H35.05V30.236h5.671c5.768.024,6.989-2.116,6.953-7.5l-.085-1.814M45,25.508l-.3.955-.459.713-.629.484-.81.326-2.273.218H37.444V17.225h2.5c3.108,0,4.873.665,5.248,3.942l.085,1.548L45.038,25.5Z" transform="translate(7.332 3.198)" fill="#a3a3a3"/>
    </g>
  </g>
</svg>
