<svg xmlns="http://www.w3.org/2000/svg" width="56.111" height="56.146" viewBox="0 0 56.111 56.146">
  <metadata><?xpacket begin="﻿" id="W5M0MpCehiHzreSzNTczkc9d"?>
<x:xmpmeta xmlns:x="adobe:ns:meta/" x:xmptk="Adobe XMP Core 8.0-c001 1.000000, 0000/00/00-00:00:00        ">
   <rdf:RDF xmlns:rdf="http://www.w3.org/1999/02/22-rdf-syntax-ns#">
      <rdf:Description rdf:about=""
            xmlns:dc="http://purl.org/dc/elements/1.1/"
            xmlns:epsilon="http://epsilon.info/dam/1.0">
         <dc:format>image/svg+xml</dc:format>
         <dc:modified>2025-11-13T03:13:54.933Z</dc:modified>
         <epsilon:expirationstatus>NO</epsilon:expirationstatus>
      </rdf:Description>
   </rdf:RDF>
</x:xmpmeta>
                                                                                                    
                                                                                                    
                                                                                                    
                                                                                                    
                                                                                                    
                                                                                                    
                                                                                                    
                                                                                                    
                                                                                                    
                                                                                                    
                                                                                                    
                                                                                                    
                                                                                                    
                                                                                                    
                                                                                                    
                                                                                                    
                                                                                                    
                                                                                                    
                                                                                                    
                                                                                                    
                           
<?xpacket end="w"?></metadata>
<g id="dbc" transform="translate(4.459 8.15)">
    <path id="Path_661" data-name="Path 661" d="M55.427,29.074l-8,3.423Q25.21,42.11,2.993,51.739a5.178,5.178,0,0,0-.5.281H2.134a15.122,15.122,0,0,0-.648-1.626c-.256-.5-.166-.719.347-.938,4.083-1.735,8.151-3.5,12.235-5.252.2-.078.392-.188.6-.281-.663-.234-1.3-.422-1.914-.672a4.074,4.074,0,0,1-1.823-1.485c-.211-.3-.407-.313-.738-.188-1.04.375-2.094.766-3.164,1.047A2.944,2.944,0,0,1,3.747,41a9.13,9.13,0,0,1-1.266-4.377c-.015-.844-.045-1.7,0-2.548a4.45,4.45,0,0,1,1.672-3.048c2.079-1.782,4.279-3.408,6.419-5.127a4.3,4.3,0,0,0,.859-.891c1.537-2.251,3-4.564,4.611-6.752a11.193,11.193,0,0,1,4.083-3.486A147.443,147.443,0,0,1,36.548,7.847a8.31,8.31,0,0,1,5.469-.109c1.582.516,3.164,1.047,4.731,1.579a.976.976,0,0,1,.422.2c.859,1,1.748,1.969,2.546,3.017.452.594.723,1.36,1.145,1.969a5.858,5.858,0,0,1,1.025,3.486,22.6,22.6,0,0,1-.181,3.032,3.464,3.464,0,0,1-2.064,2.829c-.392.172-.482.406-.422.891a6.408,6.408,0,0,1-1.281,4.8c2.17-.938,4.339-1.86,6.524-2.8.331.7.633,1.36.934,2M11.672,38.437c.166.406.286.719.407,1.032A3.288,3.288,0,0,0,14.1,41.438a3.215,3.215,0,0,0,3.571-1.266,3.668,3.668,0,0,0,.06-3.783c-.286-.516-.2-.75.331-.985q9.334-4.08,18.668-8.175c1.22-.531,2.426-1.063,3.646-1.594a19.217,19.217,0,0,0,.9,1.954,2.91,2.91,0,0,0,2.833,1.485,3.22,3.22,0,0,0,2.7-1.891,3.582,3.582,0,0,0-.241-3.579c-.256-.438-.226-.641.256-.86a21.492,21.492,0,0,0,2.155-1.079,1.226,1.226,0,0,0,.542-.7,25.539,25.539,0,0,0,.226-2.845,3.517,3.517,0,0,0-.256-1.594c-.723-1.344-1.522-2.642-2.366-3.908a3.742,3.742,0,0,0-2.17-1.657c-1.356-.36-2.682-.875-4.038-1.219a4.991,4.991,0,0,0-2.833,0A134.755,134.755,0,0,0,21.5,16.569a11.345,11.345,0,0,0-4.234,3.658c-1.537,2.157-2.908,4.424-4.369,6.627a2.118,2.118,0,0,1-.437.469c-.8.578-1.627,1.125-2.426,1.719-1.19.891-2.426,1.735-3.526,2.735a18.974,18.974,0,0,0-1.883,2.36,10.11,10.11,0,0,0,.783,5.33c.512.969.753,1.141,1.763.953a3.886,3.886,0,0,0,.708-.266c1.236-.547,2.456-1.11,3.767-1.7m27.633-9.91c-2.019.891-3.963,1.735-5.906,2.595L20.848,36.624c-.271.125-.542.188-.467.625a6.237,6.237,0,0,1-.512,3.548,7.427,7.427,0,0,1-.663,1.032c.03.031.045.063.075.094Q31.35,36.694,43.434,31.481v-.172a5.583,5.583,0,0,1-4.174-2.751" transform="translate(-3.775 -4.024)" fill="#a3a3a3" fill-rule="evenodd"/>
    <path id="Path_662" data-name="Path 662" d="M17.546,0c.542.125,1.1.234,1.642.375a11.133,11.133,0,0,1,7.232,6.19,22.48,22.48,0,0,1,1.085,3.642c.105.391,0,.641-.482.7-1.145.141-2.275.344-3.42.5-.121,0-.316-.188-.377-.328-.075-.172-.03-.406-.09-.594-.136-.422.06-.547.422-.594.542-.063,1.07-.156,1.612-.234a9.589,9.589,0,0,0-2.878-5.049c-.422.547-.829,1.094-1.266,1.672-.392-.281-.753-.547-1.16-.844.422-.61.814-1.157,1.22-1.719a9.026,9.026,0,0,0-5.454-1.454c.075.578.151,1.094.226,1.61.06.328-.03.485-.362.531-.964.156-.964.172-1.145-.844-.06-.328-.121-.672-.181-1.047A9.563,9.563,0,0,0,9.033,5.783c.557.485,1.07.938,1.642,1.454-.286.375-.573.719-.889,1.141-.512-.422-.994-.828-1.522-1.25a9.158,9.158,0,0,0-1.175,5.127,10.059,10.059,0,0,0,1.416-.172c.467-.125.6.063.6.5a1.53,1.53,0,0,0,.075.36c.075.391-.03.61-.467.641a12.714,12.714,0,0,0-1.431.219,9.756,9.756,0,0,0,2.772,5.08c.422-.578.8-1.094,1.236-1.7.377.3.723.563,1.145.891-.844,1.188-1.672,2.329-2.561,3.579a27.922,27.922,0,0,1-2.049-1.907A11.656,11.656,0,0,1,4.874,10.91a11.67,11.67,0,0,1,5.334-9.128A11.074,11.074,0,0,1,14.351.172a2.684,2.684,0,0,0,.377-.125" transform="translate(-2.01 -8.15)" fill="#a3a3a3" fill-rule="evenodd"/>
    <path id="Path_663" data-name="Path 663" d="M0,9.648H.181c1.025-.2,2.064-.422,3.119-.641-.09-.531-.181-1.016-.286-1.657.452.266.783.453,1.1.656.859.531,1.718,1.063,2.546,1.626a.617.617,0,0,1,.2.485c-.814,1.141-1.672,2.251-2.5,3.376-.015.031-.075.016-.181.047-.105-.469-.226-.953-.331-1.469-.919.188-1.823.328-2.7.547-.482.125-.663,0-.738-.5-.09-.625-.271-1.25-.407-1.876" transform="translate(-4.459 -4.012)" fill="#a3a3a3" fill-rule="evenodd"/>
    <path id="Path_664" data-name="Path 664" d="M15.212,10.811a7.267,7.267,0,0,1-.889-.422,1.5,1.5,0,0,0-1.627-.078c-1.492.7-3.044,1.282-4.535,1.954-.482.219-.723.141-.829-.391a.942.942,0,0,0-.09-.219c-.226-.406-.151-.625.316-.813C9.11,10.217,10.631,9.53,12.168,8.9c.437-.172.783-.391.8-.907a1.938,1.938,0,0,1,1.688-1.876,2.489,2.489,0,0,1,1.838.485,2.392,2.392,0,0,1,.377,3.064,6.7,6.7,0,0,1-1.642,1.157" transform="translate(-0.852 -4.722)" fill="#a3a3a3" fill-rule="evenodd"/>
  </g>
</svg>
