<svg id="icon-dbc-blurb" xmlns="http://www.w3.org/2000/svg" width="125.328" height="120.886" viewBox="0 0 125.328 120.886">
  <metadata><?xpacket begin="﻿" id="W5M0MpCehiHzreSzNTczkc9d"?>
<x:xmpmeta xmlns:x="adobe:ns:meta/" x:xmptk="Adobe XMP Core 8.0-c001 1.000000, 0000/00/00-00:00:00        ">
   <rdf:RDF xmlns:rdf="http://www.w3.org/1999/02/22-rdf-syntax-ns#">
      <rdf:Description rdf:about=""
            xmlns:dc="http://purl.org/dc/elements/1.1/"
            xmlns:epsilon="http://epsilon.info/dam/1.0">
         <dc:format>image/svg+xml</dc:format>
         <dc:modified>2025-11-13T03:14:01.611Z</dc:modified>
         <epsilon:expirationstatus>NO</epsilon:expirationstatus>
      </rdf:Description>
   </rdf:RDF>
</x:xmpmeta>
                                                                                                    
                                                                                                    
                                                                                                    
                                                                                                    
                                                                                                    
                                                                                                    
                                                                                                    
                                                                                                    
                                                                                                    
                                                                                                    
                                                                                                    
                                                                                                    
                                                                                                    
                                                                                                    
                                                                                                    
                                                                                                    
                                                                                                    
                                                                                                    
                                                                                                    
                                                                                                    
                           
<?xpacket end="w"?></metadata>
<g id="Group_260" data-name="Group 260">
    <path id="Path_626" data-name="Path 626" d="M122.14,54.149l-17.87,7.37q-49.623,20.7-99.246,41.428a11.691,11.691,0,0,0-1.111.606H3.1a31.88,31.88,0,0,0-1.447-3.5c-.572-1.077-.37-1.548.774-2.019C11.552,94.3,20.638,90.5,29.759,86.727c.438-.168.875-.4,1.346-.606-1.481-.5-2.894-.909-4.274-1.447a9.041,9.041,0,0,1-4.072-3.2c-.471-.639-.909-.673-1.649-.4-2.322.808-4.678,1.649-7.067,2.255-3.264.808-5.889-1.077-7.337-3.5A19.135,19.135,0,0,1,3.878,70.4c-.034-1.817-.1-3.668,0-5.486a9.5,9.5,0,0,1,3.736-6.563c4.644-3.837,9.558-7.337,14.337-11.039A9.42,9.42,0,0,0,23.869,45.4c3.433-4.846,6.7-9.827,10.3-14.539a24.778,24.778,0,0,1,9.12-7.5A336.169,336.169,0,0,1,79.971,8.447a19.216,19.216,0,0,1,12.216-.236c3.534,1.111,7.067,2.255,10.567,3.4a2.215,2.215,0,0,1,.942.438c1.918,2.154,3.9,4.24,5.688,6.5,1.01,1.279,1.615,2.928,2.558,4.24a12.288,12.288,0,0,1,2.288,7.5,46.916,46.916,0,0,1-.4,6.529,7.489,7.489,0,0,1-4.611,6.091c-.875.37-1.077.875-.942,1.918a13.435,13.435,0,0,1-2.861,10.332c4.846-2.019,9.692-4,14.572-6.024.74,1.514,1.413,2.928,2.087,4.308M24.408,74.308c.37.875.639,1.548.909,2.221a7.227,7.227,0,0,0,4.51,4.24c2.793.909,6.63-.37,7.976-2.726a7.655,7.655,0,0,0,.135-8.144c-.639-1.111-.438-1.615.74-2.12q20.849-8.784,41.7-17.6c2.726-1.144,5.418-2.288,8.144-3.433a40.7,40.7,0,0,0,2.019,4.207,6.568,6.568,0,0,0,6.327,3.2,7.19,7.19,0,0,0,6.024-4.072,7.475,7.475,0,0,0-.538-7.707c-.572-.942-.5-1.38.572-1.851a48.74,48.74,0,0,0,4.813-2.322,2.654,2.654,0,0,0,1.212-1.514,53.046,53.046,0,0,0,.5-6.125,7.327,7.327,0,0,0-.572-3.433c-1.615-2.894-3.4-5.688-5.284-8.414a8.327,8.327,0,0,0-4.846-3.567c-3.029-.774-5.99-1.885-9.019-2.625a11.549,11.549,0,0,0-6.327,0A307.434,307.434,0,0,0,46.35,27.226,25.1,25.1,0,0,0,36.893,35.1c-3.433,4.644-6.5,9.524-9.76,14.269a4.631,4.631,0,0,1-.976,1.01c-1.784,1.245-3.635,2.423-5.418,3.7-2.659,1.918-5.418,3.736-7.875,5.889a41.144,41.144,0,0,0-4.207,5.082c-.168,3.938-.236,7.841,1.75,11.476,1.144,2.087,1.683,2.457,3.938,2.053a8.885,8.885,0,0,0,1.582-.572c2.76-1.178,5.486-2.389,8.414-3.668M86.062,53.005c-4.51,1.918-8.851,3.736-13.192,5.587L44.9,70.4c-.606.269-1.212.4-1.043,1.346a13,13,0,0,1-1.144,7.64,15.933,15.933,0,0,1-1.481,2.221c.067.067.1.135.168.2Q68.36,70.556,95.351,59.332v-.37a12.505,12.505,0,0,1-9.322-5.923" transform="translate(3.189 17.332)" fill="#cecece" fill-rule="evenodd"/>
    <path id="Path_627" data-name="Path 627" d="M33.229,0C34.44.269,35.686.5,36.9.808A24.632,24.632,0,0,1,53.051,14.135c1.178,2.423,1.683,5.216,2.423,7.841.236.841,0,1.38-1.077,1.514-2.558.3-5.082.74-7.64,1.077-.269,0-.707-.4-.841-.707-.168-.37-.067-.875-.2-1.279-.3-.909.135-1.178.942-1.279,1.212-.135,2.389-.337,3.6-.5A20.481,20.481,0,0,0,43.83,9.928c-.942,1.178-1.851,2.356-2.827,3.6-.875-.606-1.683-1.178-2.591-1.817.942-1.313,1.817-2.49,2.726-3.7A20.735,20.735,0,0,0,28.955,4.88c.168,1.245.337,2.356.5,3.466.135.707-.067,1.043-.808,1.144-2.154.337-2.154.37-2.558-1.817-.135-.707-.269-1.447-.4-2.255a21.467,21.467,0,0,0-11.476,7.034c1.245,1.043,2.389,2.019,3.668,3.13-.639.808-1.279,1.548-1.986,2.457-1.144-.909-2.221-1.784-3.4-2.692A19.143,19.143,0,0,0,9.873,26.385a23.269,23.269,0,0,0,3.164-.37c1.043-.269,1.346.135,1.346,1.077a3.192,3.192,0,0,0,.168.774c.168.841-.067,1.313-1.043,1.38a29.388,29.388,0,0,0-3.2.471A20.8,20.8,0,0,0,16.5,40.654c.942-1.245,1.784-2.356,2.76-3.668.841.639,1.615,1.212,2.558,1.918-1.885,2.558-3.736,5.014-5.721,7.707-1.615-1.447-3.231-2.625-4.577-4.106a24.531,24.531,0,0,1-6.6-19.015C5.632,15.043,9.7,8.481,16.839,3.837A25.29,25.29,0,0,1,26.094.37,6.154,6.154,0,0,0,26.936.1" transform="translate(11.43)" fill="#cecece" fill-rule="evenodd"/>
    <path id="Path_628" data-name="Path 628" d="M0,12.3H.4c2.288-.438,4.611-.909,6.966-1.38-.2-1.144-.4-2.188-.639-3.567,1.01.572,1.75.976,2.457,1.413,1.918,1.144,3.837,2.288,5.688,3.5a1.3,1.3,0,0,1,.438,1.043c-1.817,2.457-3.736,4.846-5.587,7.269-.034.067-.168.034-.4.1-.236-1.01-.5-2.053-.74-3.163-2.053.4-4.072.707-6.024,1.178-1.077.269-1.481,0-1.649-1.077C.707,16.268.3,14.922,0,13.576" transform="translate(0 17.386)" fill="#cecece" fill-rule="evenodd"/>
    <path id="Path_629" data-name="Path 629" d="M25.2,16.258a16.507,16.507,0,0,1-1.986-.909,3.446,3.446,0,0,0-3.635-.168c-3.332,1.514-6.8,2.76-10.13,4.207-1.077.471-1.615.3-1.851-.841a1.989,1.989,0,0,0-.2-.471c-.5-.875-.337-1.346.707-1.75,3.466-1.346,6.865-2.827,10.3-4.173.976-.37,1.75-.841,1.784-1.952.1-2.457,1.851-3.635,3.769-4.039A5.714,5.714,0,0,1,28.056,7.2a5.016,5.016,0,0,1,.841,6.6c-.875,1.111-2.457,1.683-3.668,2.49" transform="translate(16.838 14.401)" fill="#cecece" fill-rule="evenodd"/>
  </g>
</svg>
