<svg xmlns="http://www.w3.org/2000/svg" width="110.766" height="107.832" viewBox="0 0 110.766 107.832">
  <metadata><?xpacket begin="﻿" id="W5M0MpCehiHzreSzNTczkc9d"?>
<x:xmpmeta xmlns:x="adobe:ns:meta/" x:xmptk="Adobe XMP Core 8.0-c001 1.000000, 0000/00/00-00:00:00        ">
   <rdf:RDF xmlns:rdf="http://www.w3.org/1999/02/22-rdf-syntax-ns#">
      <rdf:Description rdf:about=""
            xmlns:dc="http://purl.org/dc/elements/1.1/"
            xmlns:epsilon="http://epsilon.info/dam/1.0">
         <dc:format>image/svg+xml</dc:format>
         <dc:modified>2025-11-13T03:14:00.383Z</dc:modified>
         <epsilon:expirationstatus>NO</epsilon:expirationstatus>
      </rdf:Description>
   </rdf:RDF>
</x:xmpmeta>
                                                                                                    
                                                                                                    
                                                                                                    
                                                                                                    
                                                                                                    
                                                                                                    
                                                                                                    
                                                                                                    
                                                                                                    
                                                                                                    
                                                                                                    
                                                                                                    
                                                                                                    
                                                                                                    
                                                                                                    
                                                                                                    
                                                                                                    
                                                                                                    
                                                                                                    
                                                                                                    
                           
<?xpacket end="w"?></metadata>
<g id="icon-low-tire-blurb" transform="translate(0.002)">
    <g id="Group_253" data-name="Group 253" transform="translate(-0.002)">
      <path id="Path_591" data-name="Path 591" d="M16.133,48.437,15.23,18.9V2.26H27.935V18.9l-.871,29.538" transform="translate(33.888 5.028)" fill="#cecece"/>
      <rect id="Rectangle_110" data-name="Rectangle 110" width="12.383" height="12.35" transform="translate(49.279 62.816)" fill="#cecece"/>
      <path id="Path_592" data-name="Path 592" d="M7.324,53.465l.1,4A53.688,53.688,0,0,0,19.836,88.291H90.907l6.256-9.351c10.9-20.444,7.417-46.951-9-63.429v-.064H88.1l-2.225-2.225V0h9.577V12.544c17.7,20.09,20.251,50.4,6.611,73.458L95,95.288v12.544H83.555v-7.739H78.041v7.739H67.5v-7.739H61.982v7.739H50.019v-7.675H44.472v7.675H33.863v-7.675H28.349v7.675H16.482V95.643l-.1.129-7.03-9.126C-4.252,64.783-2.93,35.89,12.742,15.607l2.547-3.128V0h9.19V13.576C15.9,21.9,10.485,31.279,8.227,43.21L7.26,53.465" transform="translate(0.002)" fill="#cecece"/>
    </g>
  </g>
</svg>
