<svg xmlns="http://www.w3.org/2000/svg" width="39.893" height="38.836" viewBox="0 0 39.893 38.836">
  <metadata><?xpacket begin="﻿" id="W5M0MpCehiHzreSzNTczkc9d"?>
<x:xmpmeta xmlns:x="adobe:ns:meta/" x:xmptk="Adobe XMP Core 8.0-c001 1.000000, 0000/00/00-00:00:00        ">
   <rdf:RDF xmlns:rdf="http://www.w3.org/1999/02/22-rdf-syntax-ns#">
      <rdf:Description rdf:about=""
            xmlns:dc="http://purl.org/dc/elements/1.1/"
            xmlns:epsilon="http://epsilon.info/dam/1.0">
         <dc:format>image/svg+xml</dc:format>
         <dc:modified>2025-11-13T03:14:02.054Z</dc:modified>
         <epsilon:expirationstatus>NO</epsilon:expirationstatus>
      </rdf:Description>
   </rdf:RDF>
</x:xmpmeta>
                                                                                                    
                                                                                                    
                                                                                                    
                                                                                                    
                                                                                                    
                                                                                                    
                                                                                                    
                                                                                                    
                                                                                                    
                                                                                                    
                                                                                                    
                                                                                                    
                                                                                                    
                                                                                                    
                                                                                                    
                                                                                                    
                                                                                                    
                                                                                                    
                                                                                                    
                                                                                                    
                           
<?xpacket end="w"?></metadata>
<g id="low-tire" transform="translate(154.973 60.551)">
    <path id="Path_591" data-name="Path 591" d="M15.555,18.891,15.23,8.253V2.26h4.576V8.253l-.314,10.638" transform="translate(-152.513 -60.187)" fill="#a3a3a3"/>
    <rect id="Rectangle_110" data-name="Rectangle 110" width="4.46" height="4.448" transform="translate(-137.225 -37.928)" fill="#a3a3a3"/>
    <path id="Path_592" data-name="Path 592" d="M2.637,19.255l.035,1.44A19.336,19.336,0,0,0,7.143,31.8h25.6l2.253-3.368a19.716,19.716,0,0,0-3.24-22.844V5.563h-.023l-.8-.8V0h3.449V4.518a22.868,22.868,0,0,1,2.381,26.456l-2.543,3.345v4.518H30.091V36.049H28.105v2.787h-3.8V36.049H22.322v2.787H18.013V36.072h-2v2.764H12.195V36.072H10.209v2.764H5.935v-4.39l-.035.046L3.368,31.206A22.689,22.689,0,0,1,4.588,5.621l.917-1.127V0h3.31V4.889A19.334,19.334,0,0,0,2.962,15.562l-.348,3.693" transform="translate(-154.971 -60.551)" fill="#a3a3a3"/>
  </g>
</svg>
