<svg xmlns="http://www.w3.org/2000/svg" width="38.568" height="62.493" viewBox="0 0 38.568 62.493">
  <g id="ebd-system" transform="translate(0.375 0.423)">
    <g id="Group_211" data-name="Group 211" transform="translate(1.865 37.654)">
      <path id="Path_498" data-name="Path 498" d="M11.054,44.43a5.814,5.814,0,1,0,5.814,5.814,5.813,5.813,0,0,0-5.814-5.814m0,10.459A4.645,4.645,0,1,1,15.7,50.244a4.641,4.641,0,0,1-4.645,4.645" transform="translate(-2.663 -44.43)" fill="#a3a3a3" stroke="#a3a3a3" stroke-width="0.25"/>
      <path id="Path_499" data-name="Path 499" d="M4.022,50.264a6.6,6.6,0,0,1,1.949-4.7L5.022,44.56a8.022,8.022,0,0,0,.017,11.425l.924-1.026a6.609,6.609,0,0,1-1.949-4.7" transform="translate(-2.267 -44.45)" fill="#a3a3a3" stroke="#a3a3a3" stroke-width="0.25"/>
      <path id="Path_500" data-name="Path 500" d="M21,50.264a7.99,7.99,0,0,0-2.382-5.7l-.983,1.026a6.64,6.64,0,0,1-.008,9.374l.983,1.026A8,8,0,0,0,21,50.273" transform="translate(-4.552 -44.45)" fill="#a3a3a3" stroke="#a3a3a3" stroke-width="0.25"/>
      <path id="Path_501" data-name="Path 501" d="M32.214,44.43a5.814,5.814,0,1,0,5.814,5.814,5.813,5.813,0,0,0-5.814-5.814m0,10.459a4.645,4.645,0,1,1,4.645-4.645,4.641,4.641,0,0,1-4.645,4.645" transform="translate(-5.889 -44.43)" fill="#a3a3a3" stroke="#a3a3a3" stroke-width="0.25"/>
      <path id="Path_502" data-name="Path 502" d="M25.183,50.264a6.6,6.6,0,0,1,1.949-4.7l-.949-1.009a8.032,8.032,0,0,0,.025,11.425l.924-1.026a6.609,6.609,0,0,1-1.949-4.7" transform="translate(-5.494 -44.45)" fill="#a3a3a3" stroke="#a3a3a3" stroke-width="0.25"/>
      <path id="Path_503" data-name="Path 503" d="M42.165,50.264a8.018,8.018,0,0,0-2.373-5.7l-.983,1.026A6.64,6.64,0,0,1,38.8,54.96l.983,1.026a8,8,0,0,0,2.39-5.713" transform="translate(-7.779 -44.45)" fill="#a3a3a3" stroke="#a3a3a3" stroke-width="0.25"/>
      <path id="Path_504" data-name="Path 504" d="M12.612,51.205a.661.661,0,1,1-1.322,0V47.671a.661.661,0,0,1,1.322,0" transform="translate(-3.586 -44.823)" fill="#a3a3a3" stroke="#a3a3a3" stroke-width="0.25"/>
      <path id="Path_505" data-name="Path 505" d="M12.633,54.747a.687.687,0,1,1-.687-.687.684.684,0,0,1,.687.687" transform="translate(-3.581 -45.898)" fill="#a3a3a3" stroke="#a3a3a3" stroke-width="0.25"/>
      <path id="Path_506" data-name="Path 506" d="M33.987,47.208H31.36v6.636h1.068v-2.8h1.8A1.915,1.915,0,0,0,36,49.09c0-1.831-2.017-1.89-2.017-1.89m.034,2.822H32.428V48.3h1.56s.941-.034.941.856a.864.864,0,0,1-.907.873" transform="translate(-6.645 -44.852)" fill="#a3a3a3" stroke="#a3a3a3" stroke-width="0.25"/>
      <path id="Path_507" data-name="Path 507" d="M38.395,69.186V66.144h3.661v-1.89H38.395V61.77h3.933V59.88H36.92v11.2h5.535v-1.89" transform="translate(-7.493 -46.785)" fill="#a3a3a3" stroke="#a3a3a3" stroke-width="0.25"/>
      <path id="Path_508" data-name="Path 508" d="M31.954,64.135l2.738-4.255H32.7l-2.483,4.128-.492.822V59.88H28.25v11.2h1.475V67.593l1.161-1.814,2.009,5.3h1.924" transform="translate(-6.171 -46.785)" fill="#a3a3a3" stroke="#a3a3a3" stroke-width="0.25"/>
      <path id="Path_509" data-name="Path 509" d="M24.4,71.078h1.576L23.1,59.89H21.5L18.69,71.078h1.576l.644-2.551H23.75m-2.365-1.916.924-4.1.941,4.1Z" transform="translate(-4.714 -46.787)" fill="#a3a3a3" stroke="#a3a3a3" stroke-width="0.25"/>
      <path id="Path_510" data-name="Path 510" d="M15.024,67.143a2.658,2.658,0,0,0-.814-1.017s1.941-.127,1.907-3.212c-.042-3.373-2.721-3.026-2.721-3.026H10.15V71.076h1.466V66.414c1.365-.1,1.636.814,1.636.814l1.687,3.839H16.7s-1.356-3.263-1.67-3.933M13.176,64.6h-1.56V61.753h1.543a1.253,1.253,0,0,1,1.432,1.4c.017,1.687-1.415,1.449-1.415,1.449" transform="translate(-3.412 -46.785)" fill="#a3a3a3" stroke="#a3a3a3" stroke-width="0.25"/>
      <path id="Path_511" data-name="Path 511" d="M6.938,65.11a3.09,3.09,0,0,0,1.034-2.5C7.921,59.635,5.4,59.889,5.4,59.889H2.2V71.077H3.666c.356,0,1.17-.008,2.246-.034,1.466-.034,2.433-1.085,2.416-3.229a2.754,2.754,0,0,0-1.4-2.7M5.09,61.754A1.232,1.232,0,0,1,6.54,63.008a1.214,1.214,0,0,1-1.2,1.339H3.675V61.754Zm.322,7.416H3.675V66.2c.246-.008.644-.017,1.2,0,.89.017,1.882-.093,1.924,1.543s-1.382,1.432-1.382,1.432" transform="translate(-2.2 -46.786)" fill="#a3a3a3" stroke="#a3a3a3" stroke-width="0.25"/>
    </g>
    <g id="Group_212" data-name="Group 212">
      <path id="Path_512" data-name="Path 512" d="M12.049,13.29h1.992l2.975,8.882H15.109l-.551-1.831H11.464l-.576,1.831H9.04m2.9-3.339h2.153l-1.059-3.509Z" transform="translate(-1.378 -2.029)" fill="#a3a3a3" stroke="#a3a3a3" stroke-width="0.25"/>
      <path id="Path_513" data-name="Path 513" d="M25.18,14.241a2.347,2.347,0,0,1,.39,1.356,2.045,2.045,0,0,1-.39,1.305,2.118,2.118,0,0,1-.636.509,1.911,1.911,0,0,1,.975.78,2.448,2.448,0,0,1,.331,1.305,2.767,2.767,0,0,1-.373,1.424,2.5,2.5,0,0,1-.593.7,2.4,2.4,0,0,1-.949.449,5.8,5.8,0,0,1-1.187.119h-3.8V13.3h4.077a2.515,2.515,0,0,1,2.178.949m-4.585.568v1.975h2.043a1.576,1.576,0,0,0,.89-.22.865.865,0,0,0,.339-.788.8.8,0,0,0-.449-.822,2.992,2.992,0,0,0-.992-.144Zm0,3.45v2.39h2.043a1.88,1.88,0,0,0,.848-.161,1.153,1.153,0,0,0,.551-1.119.971.971,0,0,0-.534-.958,1.975,1.975,0,0,0-.839-.153Z" transform="translate(-2.889 -2.031)" fill="#a3a3a3" stroke="#a3a3a3" stroke-width="0.25"/>
      <path id="Path_514" data-name="Path 514" d="M29.244,19.4a1.805,1.805,0,0,0,.314.907,1.784,1.784,0,0,0,1.483.551,3.084,3.084,0,0,0,1.017-.144A1.03,1.03,0,0,0,32.8,19.68.764.764,0,0,0,32.43,19a3.95,3.95,0,0,0-1.161-.415l-.9-.212A5.447,5.447,0,0,1,28.54,17.7a2.174,2.174,0,0,1-.856-1.915,2.629,2.629,0,0,1,.831-1.983,3.4,3.4,0,0,1,2.433-.788,3.586,3.586,0,0,1,2.288.746,2.687,2.687,0,0,1,.992,2.161h-1.7a1.264,1.264,0,0,0-.67-1.127,2.247,2.247,0,0,0-1.034-.22,1.837,1.837,0,0,0-1.093.288.928.928,0,0,0-.415.805.765.765,0,0,0,.4.7,4.658,4.658,0,0,0,1.11.364l1.466.364a3.741,3.741,0,0,1,1.449.636,2.213,2.213,0,0,1,.763,1.814,2.631,2.631,0,0,1-.89,2.017,3.635,3.635,0,0,1-2.517.805,3.973,3.973,0,0,1-2.6-.788A2.684,2.684,0,0,1,27.54,19.4" transform="translate(-4.198 -1.986)" fill="#a3a3a3" stroke="#a3a3a3" stroke-width="0.25"/>
      <path id="Path_515" data-name="Path 515" d="M19.663,30.926A14.663,14.663,0,1,1,34.317,16.263,14.679,14.679,0,0,1,19.663,30.926m0-28.292A13.629,13.629,0,1,0,33.3,16.263,13.641,13.641,0,0,0,19.663,2.634" transform="translate(-0.762 -0.247)" fill="#a3a3a3" stroke="#a3a3a3" stroke-width="0.75"/>
      <path id="Path_516" data-name="Path 516" d="M9.179,32.156a.526.526,0,0,1-.271-.076A18.823,18.823,0,0,1,0,16.027,18.68,18.68,0,0,1,8.671.135.515.515,0,1,1,9.23,1a17.869,17.869,0,0,0,.22,30.2.51.51,0,0,1,.161.7.516.516,0,0,1-.432.246" transform="translate(0 -0.012)" fill="#a3a3a3" stroke="#a3a3a3" stroke-width="0.75"/>
      <path id="Path_517" data-name="Path 517" d="M33.408,32.293a.519.519,0,0,1-.441-.246.511.511,0,0,1,.178-.7A17.769,17.769,0,0,0,41.8,16.028,17.592,17.592,0,0,0,33.535.95a.515.515,0,0,1,.559-.865,18.9,18.9,0,0,1-.415,32.131.5.5,0,0,1-.263.076" transform="translate(-5.014 -0.004)" fill="#a3a3a3" stroke="#a3a3a3" stroke-width="0.75"/>
    </g>
  </g>
</svg>
