<svg xmlns="http://www.w3.org/2000/svg" width="50.345" height="48.009" viewBox="0 0 50.345 48.009">
  <metadata><?xpacket begin="﻿" id="W5M0MpCehiHzreSzNTczkc9d"?>
<x:xmpmeta xmlns:x="adobe:ns:meta/" x:xmptk="Adobe XMP Core 8.0-c001 1.000000, 0000/00/00-00:00:00        ">
   <rdf:RDF xmlns:rdf="http://www.w3.org/1999/02/22-rdf-syntax-ns#">
      <rdf:Description rdf:about=""
            xmlns:dc="http://purl.org/dc/elements/1.1/"
            xmlns:epsilon="http://epsilon.info/dam/1.0">
         <dc:format>image/svg+xml</dc:format>
         <dc:modified>2025-11-13T03:13:57.054Z</dc:modified>
         <epsilon:expirationstatus>NO</epsilon:expirationstatus>
      </rdf:Description>
   </rdf:RDF>
</x:xmpmeta>
                                                                                                    
                                                                                                    
                                                                                                    
                                                                                                    
                                                                                                    
                                                                                                    
                                                                                                    
                                                                                                    
                                                                                                    
                                                                                                    
                                                                                                    
                                                                                                    
                                                                                                    
                                                                                                    
                                                                                                    
                                                                                                    
                                                                                                    
                                                                                                    
                                                                                                    
                                                                                                    
                           
<?xpacket end="w"?></metadata>
<g id="led" transform="translate(199.297 101.733)">
    <path id="Path_607" data-name="Path 607" d="M37.98,31.58l.876-1.483A15.625,15.625,0,0,0,33.634,9.8l-.865-.556V0H17.092V9.239l-1.452.917c-17.211,14.121,3.3,38.471,20.157,24.02L36.95,32.95M20.419,3.337h9V7.746l-1.669-.391-1.7-.216-1.72-.051-1.689.175-1.689.34-.536.144ZM35.972,28.377,35.1,29.86l-1.061,1.329a12.387,12.387,0,0,1-21-11.876l.587-1.6.814-1.5A12.4,12.4,0,0,1,37.28,23.443l-.2,1.689L36.641,26.8l-.68,1.576Z" transform="translate(-199.023 -101.733)" fill="#a3a3a3"/>
    <path id="Path_608" data-name="Path 608" d="M22.11,18.566l.33,6.633h4.172l.33-6.633V13.22H22.11" transform="translate(-198.635 -101.337)" fill="#a3a3a3"/>
    <rect id="Rectangle_111" data-name="Rectangle 111" width="4.697" height="3.966" transform="translate(-176.453 -74.541)" fill="#a3a3a3"/>
    <path id="Path_609" data-name="Path 609" d="M7.313,22.2l.062-1.669H0v3.337H7.375" transform="translate(-199.297 -101.117)" fill="#a3a3a3"/>
    <path id="Path_610" data-name="Path 610" d="M12.324,10.1l1.288-1.154L8.389,3.71,6.01,6.079l5.232,5.232" transform="translate(-199.117 -101.622)" fill="#a3a3a3"/>
    <path id="Path_611" data-name="Path 611" d="M37.889,11.311l5.2-5.232L40.742,3.71,35.52,8.942l1.205,1.1" transform="translate(-198.232 -101.622)" fill="#a3a3a3"/>
    <path id="Path_612" data-name="Path 612" d="M36.777,34.425,35.52,35.589l5.222,5.222,2.348-2.369-5.2-5.232" transform="translate(-198.232 -100.737)" fill="#a3a3a3"/>
    <path id="Path_613" data-name="Path 613" d="M12.406,34.5,11.242,33.21,6.01,38.442l2.379,2.369,5.222-5.222h-.021" transform="translate(-199.117 -100.737)" fill="#a3a3a3"/>
    <path id="Path_614" data-name="Path 614" d="M41.72,20.53l.072,1.648-.072,1.689h7.375V20.53" transform="translate(-198.047 -101.117)" fill="#a3a3a3"/>
    <path id="Path_615" data-name="Path 615" d="M22.84,39.42v7.406h3.337V39.42l-1.669.093" transform="translate(-198.613 -100.551)" fill="#a3a3a3"/>
  </g>
</svg>
