<svg id="icon-led-blurb" xmlns="http://www.w3.org/2000/svg" width="137.74" height="131.344" viewBox="0 0 137.74 131.344">
  <metadata><?xpacket begin="﻿" id="W5M0MpCehiHzreSzNTczkc9d"?>
<x:xmpmeta xmlns:x="adobe:ns:meta/" x:xmptk="Adobe XMP Core 8.0-c001 1.000000, 0000/00/00-00:00:00        ">
   <rdf:RDF xmlns:rdf="http://www.w3.org/1999/02/22-rdf-syntax-ns#">
      <rdf:Description rdf:about=""
            xmlns:dc="http://purl.org/dc/elements/1.1/"
            xmlns:epsilon="http://epsilon.info/dam/1.0">
         <dc:format>image/svg+xml</dc:format>
         <dc:modified>2025-11-13T03:13:58.784Z</dc:modified>
         <epsilon:expirationstatus>NO</epsilon:expirationstatus>
      </rdf:Description>
   </rdf:RDF>
</x:xmpmeta>
                                                                                                    
                                                                                                    
                                                                                                    
                                                                                                    
                                                                                                    
                                                                                                    
                                                                                                    
                                                                                                    
                                                                                                    
                                                                                                    
                                                                                                    
                                                                                                    
                                                                                                    
                                                                                                    
                                                                                                    
                                                                                                    
                                                                                                    
                                                                                                    
                                                                                                    
                                                                                                    
                           
<?xpacket end="w"?></metadata>
<g id="Group_257" data-name="Group 257">
    <path id="Path_607" data-name="Path 607" d="M88.055,86.4l2.4-4.058A42.748,42.748,0,0,0,76.164,26.8L73.8,25.277V0H30.908V25.277l-3.973,2.508C-20.153,66.419,35.952,133.034,82.081,93.5l3.156-3.353M40.01,9.13H64.638V21.191L60.073,20.12l-4.65-.592-4.706-.141-4.621.479-4.621.93-1.465.395Zm42.551,68.5-2.4,4.058-2.9,3.635C52.437,111.364,10.28,87.609,19.805,52.836l1.606-4.368,2.226-4.114C43,15.16,87.294,29.278,86.139,64.136L85.6,68.757l-1.212,4.565-1.86,4.311Z" transform="translate(16.603)" fill="#cecece"/>
    <path id="Path_608" data-name="Path 608" d="M22.11,27.845l.9,18.147H34.424l.9-18.147V13.22H22.11" transform="translate(40.194 24.033)" fill="#cecece"/>
    <rect id="Rectangle_111" data-name="Rectangle 111" width="12.85" height="10.849" transform="translate(62.502 74.393)" fill="#cecece"/>
    <path id="Path_609" data-name="Path 609" d="M20.007,25.1l.169-4.565H0v9.13H20.176" transform="translate(0 37.322)" fill="#cecece"/>
    <path id="Path_610" data-name="Path 610" d="M23.284,21.181l3.522-3.156L12.519,3.71,6.01,10.191,20.325,24.506" transform="translate(10.926 6.745)" fill="#cecece"/>
    <path id="Path_611" data-name="Path 611" d="M42,24.506,56.232,10.191,49.807,3.71,35.52,18.025l3.3,3.015" transform="translate(64.573 6.745)" fill="#cecece"/>
    <path id="Path_612" data-name="Path 612" d="M38.958,36.535,35.52,39.719,49.807,54.006l6.425-6.481L42,33.21" transform="translate(64.573 60.373)" fill="#cecece"/>
    <path id="Path_613" data-name="Path 613" d="M23.509,36.732,20.325,33.21,6.01,47.525l6.509,6.481L26.806,39.719H26.75" transform="translate(10.926 60.373)" fill="#cecece"/>
    <path id="Path_614" data-name="Path 614" d="M41.72,20.53l.2,4.509-.2,4.621H61.9V20.53" transform="translate(75.844 37.322)" fill="#cecece"/>
    <path id="Path_615" data-name="Path 615" d="M22.84,39.42V59.681h9.13V39.42l-4.565.254" transform="translate(41.521 71.663)" fill="#cecece"/>
  </g>
</svg>
