<svg xmlns="http://www.w3.org/2000/svg" width="46.997" height="33.283" viewBox="0 0 46.997 33.283">
  <g id="_3-charging-system" data-name="3-charging-system" transform="translate(-55.842 -317.98)">
    <g id="icon" transform="translate(55.842 317.98)">
      <path id="Path_520" data-name="Path 520" d="M41.12,3.955V0H33.283V3.955H13.7V0H5.865V3.955H0V33.283H47V3.955m-3.123,26.18H3.135V7.1H43.863V30.136Z" fill="#002c5f" fill-rule="evenodd"/>
      <path id="Path_521" data-name="Path 521" d="M41.12,3.955V0H33.283V3.955H13.7V0H5.865V3.955H0V33.283H47V3.955Zm2.755,26.18H3.135V7.1H43.863V30.136Z" fill="#002c5f"/>
      <rect id="Rectangle_101" data-name="Rectangle 101" width="9.404" height="3.159" transform="translate(7.286 13.8)" fill="#002c5f"/>
      <rect id="Rectangle_102" data-name="Rectangle 102" width="9.404" height="3.159" transform="translate(7.286 13.8)" fill="#002c5f"/>
      <path id="Path_522" data-name="Path 522" d="M24.76,15.019h3.135v3.147H31.03V15.019h3.123V11.847H31.03V8.7H27.895v3.147H24.76" transform="translate(5.559 1.953)" fill="#002c5f" fill-rule="evenodd"/>
      <path id="Path_523" data-name="Path 523" d="M24.76,15.019h3.135v3.147H31.03V15.019h3.123V11.847H31.03V8.7H27.895v3.147H24.76v3.172" transform="translate(5.559 1.953)" fill="#002c5f"/>
    </g>
  </g>
</svg>
