<svg xmlns="http://www.w3.org/2000/svg" width="65.443" height="53.574" viewBox="0 0 65.443 53.574">
  <g id="_3-fwd-safety" data-name="3-fwd-safety" transform="translate(-1488.007 -305.431)">
    <g id="icon" transform="translate(1496.081 314.827)">
      <path id="Path_593" data-name="Path 593" d="M35.232,17.98l.19-.139v-.3L26.7,11.5,28.676.254,28.562,0h-.3l-6.5,8.1L14.462,3.094h-.355v.33l1.826,8.61-9.688,3.55-.165.254.2.228L17.2,17.892l1.877,8.673.228.228.228-.152,4.324-9.079" transform="translate(-6.445 -9.396)" fill="#002c5f"/>
      <path id="Path_594" data-name="Path 594" d="M18.412,22.279l-.735-1.458-1.154-.735-.647-.114L13.454,19.6l-1.484-.723-1.433-.786L9.054,17.41l-1.547-.533-1.572-.418-1.61-.279-1.636-.139-.2-.025L.85,15.99H0V17.9H.786l1.636.025c6.949.19,7.862,3.639,13.314,3.944l.19.025.393.279.254.533.482,2.384.228,1.2-.025.571-.279,1.293-.228.444-.279.254-.165.038-.507.063-1.61.228-1.636.165-.025.393-.761,1.344-1.293.735-.71.089h-.19L8.09,31.358l-.964-1.243L7.037,29.8H0v1.94H6.048c4.78,5.313,6.746-.71,8.939-.723l1.61-.2v-.025l.786-.279.761-.6.761-1.458.33-2.244-.279-1.5" transform="translate(-8.074 -5.111)" fill="#002c5f"/>
      <path id="Path_595" data-name="Path 595" d="M60.443,24.732l-.533-2.447-.735-1.433-1.154-.761-.647-.114-2.422-.368-1.484-.723L52.037,18.1l-1.471-.685-1.547-.533-1.572-.418-1.61-.279L44.2,16.046l-.216-.025-2.308-.051-3.88.254-2.029.418-.875.368-5.173,3.3-2.739.342-.812.139-4.248,1.04-1.75.761-1.04.71-.571.761-.786,2.447-.165,1.6.228.964.368,1.6.672.254,1.915.444,1.724.114,1.407,1.661,1.75.8.9.089.761-.063,1.522-.621,1.509-1.458h.812l1.636-.025,1.636-.025,1.623-.025,1.636-.025,1.636-.025h1.636l3.284-.051H45.9l1.61-.025,1.458,1.433.761.393,1.522.292.926-.089,1.75-.812,1.458-1.725,1.09-.19,1.61-.2v-.025l.786-.279.761-.6.786-1.458.3-2.244m-1.965.71-.279,1.293-.228.431-.279.254-.165.051-.507.063-1.61.228-1.636.165v.393l-.786,1.344L52,31.846l-.735.089h-.19L49.6,31.376l-.976-1.243h.025l-.114-.3-8.584.051-10.575.038-.165.444-.063.165-1.04,1.179-1.522.431-.533-.051-1.407-.71-.812-1.369h.025l-.089-.444h-.647l-1.61-.063-1.61-.254-.342-1.357c.456-4.387.824-3.817,4.945-4.869l5.858-.875,5.541-3.487,2.612-.583c3.7-.3,7.583-.368,11.108,1.014l1.471.672,1.433.786.926.507,1.268.431,2.536.393.178.025.393.279.254.533.482,2.384.254,1.2-.038.583Z" transform="translate(-3.354 -5.116)" fill="#002c5f"/>
      <path id="Path_596" data-name="Path 596" d="M26.5,35.008V32.155h-.025l-.19-.355h-.456l-8.7,6.378v.507l8.724,6.365h.431l.19-.317H26.5V42.007H40.8l.165-.025.216-.139.063-.114V35.376h.025l-.418-.368" transform="translate(-3.482 -0.873)" fill="#002c5f"/>
    </g>
  </g>
</svg>
