<svg id="iocn-fwd-safety-blurb" xmlns="http://www.w3.org/2000/svg" width="147.602" height="120.833" viewBox="0 0 147.602 120.833">
  <g id="Group_254" data-name="Group 254">
    <path id="Path_593" data-name="Path 593" d="M71.83,40.554l.429-.315v-.686L52.583,25.94,57.044.572,56.787,0H56.1L41.429,18.275,24.984,6.978h-.8v.744L28.3,27.141,6.452,35.149l-.372.572.458.515,24.624,4.118,4.233,19.562.515.515.515-.343L46.176,39.61" transform="translate(11.308)" fill="#cecece"/>
    <path id="Path_594" data-name="Path 594" d="M41.526,30.175l-1.659-3.289-2.6-1.659-1.459-.257-5.462-.829L27,22.511l-3.232-1.773L20.42,19.193l-3.489-1.2-3.546-.944-3.632-.629L6.063,16.1l-.458-.057L1.916,15.99H0v4.319H1.773l3.689.057c15.672.429,17.732,8.208,30.029,8.894l.429.057.887.629.572,1.2,1.087,5.377.515,2.717-.057,1.287-.629,2.917-.515,1-.629.572-.372.086-1.144.143L32,45.762l-3.689.372-.057.887L26.54,50.052l-2.917,1.659-1.6.2h-.429l-3.346-1.258-2.174-2.8-.2-.715H0V51.51H13.642c10.782,11.983,15.215-1.6,20.163-1.63l3.632-.458v-.057l1.773-.629,1.716-1.344L42.642,44.1l.744-5.062-.629-3.375" transform="translate(0 29.74)" fill="#cecece"/>
    <path id="Path_595" data-name="Path 595" d="M114.219,35.732l-1.2-5.52-1.659-3.232-2.6-1.716-1.459-.257-5.462-.829-3.346-1.63-3.232-1.773L91.94,19.23l-3.489-1.2L84.9,17.085l-3.632-.629-3.689-.315-.486-.057-5.205-.114-8.751.572-4.576.944-1.973.829L44.922,25.751l-6.177.772-1.83.315-9.581,2.345L23.387,30.9l-2.345,1.6-1.287,1.716-1.773,5.52-.372,3.6.515,2.174.829,3.6,1.516.572,4.319,1,3.89.257,3.175,3.747L35.8,56.5l2.031.2,1.716-.143,3.432-1.4,3.4-3.289h1.83l3.689-.057,3.689-.057,3.661-.057,3.689-.057,3.689-.057h3.689l7.407-.114h3.689l3.632-.057,3.289,3.232,1.716.887,3.432.658,2.088-.2,3.947-1.83,3.289-3.89,2.46-.429,3.632-.458v-.057l1.773-.629,1.716-1.344,1.773-3.289.686-5.062m-4.433,1.6-.629,2.917-.515.972-.629.572-.372.114-1.144.143-3.632.515L99.8,46.2v.887l-1.773,3.032-2.86,1.659-1.659.2h-.429l-3.318-1.258-2.2-2.8h.057l-.257-.686L68,47.344l-23.852.086-.372,1-.143.372-2.345,2.66-3.432.972-1.2-.114-3.175-1.6-1.83-3.089h.057l-.2-1H30.051l-3.632-.143-3.632-.572-.772-3.06c1.03-9.9,1.859-8.608,11.154-10.982L46.381,29.9l12.5-7.865,5.891-1.316c8.351-.686,17.1-.829,25.053,2.288l3.318,1.516,3.232,1.773,2.088,1.144,2.86.972,5.72.887.4.057.887.629.572,1.2,1.087,5.377.572,2.717-.086,1.316Z" transform="translate(32.754 29.703)" fill="#cecece"/>
    <path id="Path_596" data-name="Path 596" d="M38.265,39.036V32.6h-.057l-.429-.8h-1.03L17.13,46.186v1.144L36.806,61.686h.972l.429-.715h.057V54.823h32.26l.372-.057.486-.315.143-.257V39.865h.057l-.944-.829" transform="translate(31.861 59.146)" fill="#cecece"/>
  </g>
</svg>
