<svg xmlns="http://www.w3.org/2000/svg" width="199.631" height="84.268" viewBox="0 0 199.631 84.268">
  <metadata><?xpacket begin="﻿" id="W5M0MpCehiHzreSzNTczkc9d"?>
<x:xmpmeta xmlns:x="adobe:ns:meta/" x:xmptk="Adobe XMP Core 8.0-c001 1.000000, 0000/00/00-00:00:00        ">
   <rdf:RDF xmlns:rdf="http://www.w3.org/1999/02/22-rdf-syntax-ns#">
      <rdf:Description rdf:about=""
            xmlns:dc="http://purl.org/dc/elements/1.1/"
            xmlns:epsilon="http://epsilon.info/dam/1.0">
         <dc:format>image/svg+xml</dc:format>
         <dc:modified>2025-11-13T03:13:56.995Z</dc:modified>
         <epsilon:expirationstatus>NO</epsilon:expirationstatus>
      </rdf:Description>
   </rdf:RDF>
</x:xmpmeta>
                                                                                                    
                                                                                                    
                                                                                                    
                                                                                                    
                                                                                                    
                                                                                                    
                                                                                                    
                                                                                                    
                                                                                                    
                                                                                                    
                                                                                                    
                                                                                                    
                                                                                                    
                                                                                                    
                                                                                                    
                                                                                                    
                                                                                                    
                                                                                                    
                                                                                                    
                                                                                                    
                           
<?xpacket end="w"?></metadata>
<g id="icon-lane-safety-blurb" transform="translate(0 0.01)">
    <g id="Group_255" data-name="Group 255" transform="translate(0 -0.01)">
      <path id="Path_597" data-name="Path 597" d="M49.063.026c.946,1.673,1.855,3.31,2.837,4.983l4.255,7.31c1.6,2.728,3.164,5.455,4.764,8.183,1.455,2.473,2.873,4.983,4.328,7.456l4.255,7.31,4.255,7.31c1.6,2.728,3.164,5.455,4.764,8.183l4.255,7.31c1.637,2.764,3.237,5.528,4.837,8.329L91.87,73.82c1.564,2.691,3.164,5.419,4.764,8.11.291.509.618.982.946,1.491v.8H79.032c-.327-.546-.655-1.091-.946-1.637-1.309-2.691-2.619-5.383-3.891-8.074-2.146-4.437-4.255-8.91-6.4-13.348-1.309-2.764-2.655-5.528-3.964-8.292C61.72,48.507,59.61,44.142,57.5,39.742c-1.346-2.8-2.691-5.564-4.037-8.329-2.109-4.364-4.182-8.692-6.292-13.057-1.346-2.8-2.691-5.564-4-8.365-1.418-2.91-2.8-5.855-4.219-8.765-.218-.436-.436-.836,0-1.237" transform="translate(102.051 0.01)" fill="#cecece" fill-rule="evenodd"/>
      <path id="Path_598" data-name="Path 598" d="M0,83.431c.8-1.309,1.6-2.582,2.364-3.892,1.6-2.728,3.164-5.455,4.764-8.183,1.273-2.182,2.546-4.4,3.819-6.583,1.6-2.728,3.164-5.455,4.764-8.183,1.418-2.473,2.873-4.91,4.292-7.383s2.873-4.91,4.292-7.383l4.255-7.31c1.455-2.473,2.873-4.983,4.328-7.456l4.255-7.419c1.418-2.473,2.873-4.91,4.328-7.383l4.255-7.419c.946-1.6,1.855-3.237,2.8-4.837H58.664c.4.4.182.8,0,1.2-1.782,3.673-3.6,7.31-5.383,10.984-1.309,2.691-2.619,5.419-3.892,8.147-2.037,4.219-4.073,8.4-6.074,12.62-1.309,2.728-2.619,5.455-3.928,8.219-1.964,4.073-3.892,8.147-5.855,12.22-1.382,2.837-2.728,5.71-4.11,8.547-2.037,4.182-4.037,8.365-6.037,12.547-1.418,2.982-2.837,5.928-4.292,8.91a6.171,6.171,0,0,1-.618.837H0" transform="translate(0 0.036)" fill="#cecece" fill-rule="evenodd"/>
      <path id="Path_599" data-name="Path 599" d="M33.148,63.784c-.145,1.055-.364,2-.436,2.946a3.494,3.494,0,0,1-3.455,2.946c-2.8-.073-5.6,0-8.4,0a2.938,2.938,0,0,1-2.873-1.637,6.718,6.718,0,0,1-.618-2.546,38.528,38.528,0,0,1,0-4.583c.182-5.528-.364-11.02-.582-16.512a22.616,22.616,0,0,1,.509-4.946,81.94,81.94,0,0,1,2.8-10.547,21.288,21.288,0,0,1,1.455-2.873,25.158,25.158,0,0,1-3.019-.436,29.264,29.264,0,0,1-3.455-1.091,2.4,2.4,0,0,1-1.491-2.582A5.871,5.871,0,0,1,14.746,18.5a4.127,4.127,0,0,1,3.382-1.455c2.328-.073,4.619-.109,6.947-.182a17.246,17.246,0,0,0,2.364-.182c.218,0,.436-.291.582-.473,1.6-2.655,3.128-5.383,4.764-8,1.127-1.782,2.473-3.419,4.728-3.892a22.045,22.045,0,0,1,3.455-.546c1.528-.145,3.055-.145,4.583-.182l13.275-.327c3.2-.073,6.365-.145,9.565-.145,2.982,0,6,.073,9.02.145,2.219.073,4.4.182,6.619.327,1.6.073,3.2.145,4.764.327A8.008,8.008,0,0,1,94.54,7.012a79.54,79.54,0,0,1,5.746,9.347.922.922,0,0,0,.655.364c2.473.073,4.946.109,7.419.182a23.865,23.865,0,0,1,3.2.327,3.993,3.993,0,0,1,2.8,3.128,9.531,9.531,0,0,1,.145,2.255,2.594,2.594,0,0,1-1.964,2.182,17.037,17.037,0,0,1-6.11,1.127C108.251,28.36,108.869,31.2,109.6,34a53.348,53.348,0,0,1,1.637,7.892,47.228,47.228,0,0,1-.073,6.8c0,.982-.145,1.928-.145,2.91-.073,3.964-.036,7.928-.182,11.856a13.338,13.338,0,0,1-.582,4.619,3.45,3.45,0,0,1-2.655,1.637c-3.019,0-6.074.036-9.129,0a3.131,3.131,0,0,1-2.946-2.691c-.073-.836-.218-1.637-.327-2.473-.036-.436-.218-.727-.727-.691H34.13M94.212,25.233v-.327c-.8-2.364-1.528-4.728-2.4-7.056a25.75,25.75,0,0,0-3.637-6.837,1.4,1.4,0,0,0-.873-.546c-2.255-.255-4.51-.509-6.765-.655-2.582-.182-5.128-.327-7.71-.327-6.183,0-12.329.073-18.512.145-3.091.036-6.183.182-9.274.327-1.237.036-2.509.182-3.746.327a2.137,2.137,0,0,0-1.237.509,23.724,23.724,0,0,0-2.437,3.855C36.64,16.795,35.84,19.013,35,21.2c-.473,1.273-.836,2.582-1.273,3.928H94.212Z" transform="translate(35.808 8.264)" fill="#cecece" fill-rule="evenodd"/>
    </g>
  </g>
</svg>
