<svg xmlns="http://www.w3.org/2000/svg" width="64.505" height="27.229" viewBox="0 0 64.505 27.229">
  <metadata><?xpacket begin="﻿" id="W5M0MpCehiHzreSzNTczkc9d"?>
<x:xmpmeta xmlns:x="adobe:ns:meta/" x:xmptk="Adobe XMP Core 8.0-c001 1.000000, 0000/00/00-00:00:00        ">
   <rdf:RDF xmlns:rdf="http://www.w3.org/1999/02/22-rdf-syntax-ns#">
      <rdf:Description rdf:about=""
            xmlns:dc="http://purl.org/dc/elements/1.1/"
            xmlns:epsilon="http://epsilon.info/dam/1.0">
         <dc:format>image/svg+xml</dc:format>
         <dc:modified>2025-11-13T03:13:56.366Z</dc:modified>
         <epsilon:expirationstatus>NO</epsilon:expirationstatus>
      </rdf:Description>
   </rdf:RDF>
</x:xmpmeta>
                                                                                                    
                                                                                                    
                                                                                                    
                                                                                                    
                                                                                                    
                                                                                                    
                                                                                                    
                                                                                                    
                                                                                                    
                                                                                                    
                                                                                                    
                                                                                                    
                                                                                                    
                                                                                                    
                                                                                                    
                                                                                                    
                                                                                                    
                                                                                                    
                                                                                                    
                                                                                                    
                           
<?xpacket end="w"?></metadata>
<g id="lane-safety" transform="translate(2.932 -10.244)">
    <path id="Path_597" data-name="Path 597" d="M42.049,0c.306.541.6,1.069.917,1.61l1.375,2.362c.517.881,1.022,1.763,1.539,2.644.47.8.928,1.61,1.4,2.409l1.375,2.362,1.375,2.362c.517.881,1.022,1.763,1.539,2.644l1.375,2.362c.529.893,1.046,1.786,1.563,2.691l1.375,2.4c.505.87,1.022,1.751,1.539,2.621.094.165.2.317.306.482v.259H51.733c-.106-.176-.212-.353-.306-.529-.423-.87-.846-1.739-1.257-2.609-.693-1.434-1.375-2.879-2.068-4.313-.423-.893-.858-1.786-1.281-2.679-.682-1.41-1.363-2.82-2.045-4.242-.435-.9-.87-1.8-1.3-2.691-.682-1.41-1.351-2.809-2.033-4.219-.435-.9-.87-1.8-1.293-2.7-.458-.94-.9-1.892-1.363-2.832-.071-.141-.141-.27,0-.4" transform="translate(3.847 10.254)" fill="#a3a3a3" fill-rule="evenodd"/>
    <path id="Path_598" data-name="Path 598" d="M0,26.958c.259-.423.517-.834.764-1.257.517-.881,1.022-1.763,1.539-2.644.411-.705.823-1.422,1.234-2.127.517-.881,1.022-1.763,1.539-2.644.458-.8.928-1.586,1.387-2.386s.928-1.586,1.387-2.386l1.375-2.362c.47-.8.928-1.61,1.4-2.409L12,6.346c.458-.8.928-1.586,1.4-2.386l1.375-2.4c.306-.517.6-1.046.9-1.563h3.279c.129.129.059.259,0,.388-.576,1.187-1.163,2.362-1.739,3.549-.423.87-.846,1.751-1.257,2.632C15.3,7.932,14.643,9.284,14,10.647c-.423.881-.846,1.763-1.269,2.656-.635,1.316-1.257,2.632-1.892,3.949-.447.917-.881,1.845-1.328,2.762-.658,1.351-1.3,2.7-1.951,4.054-.458.964-.917,1.916-1.387,2.879a1.994,1.994,0,0,1-.2.27H0" transform="translate(-2.932 10.256)" fill="#a3a3a3" fill-rule="evenodd"/>
    <path id="Path_599" data-name="Path 599" d="M19.9,22.722c-.047.341-.118.646-.141.952a1.129,1.129,0,0,1-1.116.952c-.9-.024-1.81,0-2.715,0A.949.949,0,0,1,15,24.1a2.171,2.171,0,0,1-.2-.823,12.449,12.449,0,0,1,0-1.481c.059-1.786-.118-3.561-.188-5.335a7.308,7.308,0,0,1,.165-1.6,26.477,26.477,0,0,1,.9-3.408,6.878,6.878,0,0,1,.47-.928,8.129,8.129,0,0,1-.975-.141,9.456,9.456,0,0,1-1.116-.353A.775.775,0,0,1,13.58,9.2a1.9,1.9,0,0,1,.376-1.1,1.333,1.333,0,0,1,1.093-.47c.752-.024,1.492-.035,2.245-.059a5.573,5.573,0,0,0,.764-.059c.071,0,.141-.094.188-.153.517-.858,1.011-1.739,1.539-2.585a2.443,2.443,0,0,1,1.528-1.257,7.123,7.123,0,0,1,1.116-.176c.494-.047.987-.047,1.481-.059L28.2,3.167c1.034-.024,2.057-.047,3.091-.047.964,0,1.939.024,2.914.047.717.024,1.422.059,2.139.106.517.024,1.034.047,1.539.106a2.588,2.588,0,0,1,1.857,1A25.7,25.7,0,0,1,41.6,7.4a.3.3,0,0,0,.212.118c.8.024,1.6.035,2.4.059a7.712,7.712,0,0,1,1.034.106,1.29,1.29,0,0,1,.9,1.011,3.08,3.08,0,0,1,.047.729.838.838,0,0,1-.635.705,5.505,5.505,0,0,1-1.974.364A7.121,7.121,0,0,1,44.6,13.1a17.237,17.237,0,0,1,.529,2.55,15.261,15.261,0,0,1-.024,2.2c0,.317-.047.623-.047.94-.024,1.281-.012,2.562-.059,3.831a4.31,4.31,0,0,1-.188,1.492,1.115,1.115,0,0,1-.858.529c-.975,0-1.963.012-2.95,0a1.012,1.012,0,0,1-.952-.87c-.023-.27-.071-.529-.106-.8-.012-.141-.071-.235-.235-.223H20.22m19.414-12.48v-.106c-.259-.764-.494-1.528-.776-2.28A8.32,8.32,0,0,0,37.683,5.67a.451.451,0,0,0-.282-.176c-.729-.082-1.457-.165-2.186-.212-.834-.059-1.657-.106-2.491-.106-2,0-3.984.024-5.982.047-1,.012-2,.059-3,.106-.4.012-.811.059-1.21.106a.691.691,0,0,0-.4.165,7.666,7.666,0,0,0-.787,1.246c-.317.693-.576,1.41-.846,2.115-.153.411-.27.834-.411,1.269H39.634Z" transform="translate(-0.553 10.802)" fill="#a3a3a3" fill-rule="evenodd"/>
  </g>
</svg>
