<svg xmlns="http://www.w3.org/2000/svg" width="62.861" height="36.681" viewBox="0 0 62.861 36.681">
  <g id="_3-mil" data-name="3-mil" transform="translate(-1120.799 -316.281)">
    <g id="icon" transform="translate(1121.299 316.781)">
      <path id="Path_531" data-name="Path 531" d="M53.794,14H49.622l-3.093-3.1H44.281l-3.093-4.64H30.519V3.082h9.724V0H19.059V3.082h8.4V6.253L17.523,6.3,14.43,10.047l-.723.846H8.356l-.757.779v6.2H3.026V8.578H.734L0,9.357V29.484l.734.779H2.259L3,29.484V21.74H7.61v6.987h5.352l.757.757H14.5l6.865,6.2H46.573l.768-.779,2.292-5.429.768-.779h3.049l.768.79,1.524,2.3.768.779h4.584l.768-1.558V12.094c-.022-1.313-.868-1.213-.868-1.213H56.4a2.486,2.486,0,0,0-.89.779c-.579.779-1.713,2.325-1.713,2.325M44.281,32.577h-21.4l-7.644-6.2V25.6H10.659V13.985h4.584l3.816-3.872H39.586l2.392,3.816h3.06l3.494,3.149v.779h6.442v-.779l2.292-3.093H58.79v14.7H57.266l-.757-2.314-.768-.779-7.4-.022a1.506,1.506,0,0,0-1.068.946c-.356.834-2.181,5.162-2.181,5.162l-.8.89Z" fill="#002c5f" stroke="#002c5f" stroke-width="1" fill-rule="evenodd"/>
    </g>
  </g>
</svg>
