<svg id="icon-mil-blurb" xmlns="http://www.w3.org/2000/svg" width="181.864" height="104.899" viewBox="0 0 181.864 104.899">
  <metadata><?xpacket begin="﻿" id="W5M0MpCehiHzreSzNTczkc9d"?>
<x:xmpmeta xmlns:x="adobe:ns:meta/" x:xmptk="Adobe XMP Core 8.0-c001 1.000000, 0000/00/00-00:00:00        ">
   <rdf:RDF xmlns:rdf="http://www.w3.org/1999/02/22-rdf-syntax-ns#">
      <rdf:Description rdf:about=""
            xmlns:dc="http://purl.org/dc/elements/1.1/"
            xmlns:epsilon="http://epsilon.info/dam/1.0">
         <dc:format>image/svg+xml</dc:format>
         <dc:modified>2025-11-13T03:13:56.181Z</dc:modified>
         <epsilon:expirationstatus>NO</epsilon:expirationstatus>
      </rdf:Description>
   </rdf:RDF>
</x:xmpmeta>
                                                                                                    
                                                                                                    
                                                                                                    
                                                                                                    
                                                                                                    
                                                                                                    
                                                                                                    
                                                                                                    
                                                                                                    
                                                                                                    
                                                                                                    
                                                                                                    
                                                                                                    
                                                                                                    
                                                                                                    
                                                                                                    
                                                                                                    
                                                                                                    
                                                                                                    
                                                                                                    
                           
<?xpacket end="w"?></metadata>
<path id="Path_579" data-name="Path 579" d="M158.15,41.148H145.884l-9.093-9.126h-6.607l-9.093-13.64H89.722V9.06H118.31V0H56.031V9.06h24.7v9.322l-29.209.131L42.424,29.537,40.3,32.022H24.565l-2.224,2.29V52.531H8.9V25.219H2.159L0,27.509V86.68l2.159,2.29H6.64l2.192-2.29V63.914H22.373V84.456H38.106l2.224,2.224h2.29L62.8,104.9h74.119l2.257-2.29,6.738-15.962,2.257-2.29h8.962l2.257,2.322,4.481,6.771,2.257,2.29h13.476l2.257-4.579V35.555c-.065-3.86-2.551-3.565-2.551-3.565H165.8a7.309,7.309,0,0,0-2.617,2.29c-1.7,2.29-5.037,6.836-5.037,6.836M130.183,95.773h-62.9L44.812,77.554v-2.29H31.336V41.116H44.812L56.031,29.733H116.38l7.033,11.219h9l10.271,9.257V52.5h18.939v-2.29l6.738-9.093h4.481V84.325h-4.481l-2.224-6.8-2.257-2.29-21.752-.065a4.428,4.428,0,0,0-3.14,2.78c-1.047,2.453-6.411,15.177-6.411,15.177l-2.355,2.617Z" fill="#cecece" fill-rule="evenodd"/>
</svg>
