<svg id="icon-airbag-blurb" xmlns="http://www.w3.org/2000/svg" width="119.744" height="108.349" viewBox="0 0 119.744 108.349">
  <path id="Path_543" data-name="Path 543" d="M65.554,69.811h-.031l-.094-.282L61.39,56.788l-7.513,5.76,3.037,9.58,6.1,19.19h.063l5.385,17.03h9.36l-6.919-21.82L65.585,69.78m31.9-35.062,4.289,7.7,17.969-9.736V22.665ZM40.447,53.439A26.93,26.93,0,0,0,67.589,26.7,26.9,26.9,0,0,0,40.447,0,26.924,26.924,0,0,0,13.3,26.7,26.95,26.95,0,0,0,40.447,53.439M29.8,60.889l-2.442.25-2.473,1.252-1.972,2L2.348,91.694l-.188.438A8.308,8.308,0,0,0,0,97.642a8.458,8.458,0,0,0,8.515,8.39,8.262,8.262,0,0,0,3.318-.657l.564-.063.877-.689,1.284-1.033,1.284-1.033L33,81.05l1-1.033,1.471-.751h1.471l20.724,8.39-7.92-24.794-19.91-1.941ZM92.508,42.92l-1.19-2.285-.563-.595a9.7,9.7,0,0,0-16.31.939l-.47.626L64.458,53.439l9.548,29.9S87.343,59.481,91.131,52.562a10.708,10.708,0,0,0,1.221-2.473c.939-2.254.845-4.132.25-6.919ZM87.5,8.828A11.725,11.725,0,1,0,99.4,20.536,11.812,11.812,0,0,0,87.5,8.828" fill="#cecece"/>
</svg>
