<svg xmlns="http://www.w3.org/2000/svg" width="44.177" height="39.973" viewBox="0 0 44.177 39.973">
  <g id="_3-airbag" data-name="3-airbag" transform="translate(-1314.391 -314.635)">
    <g id="icon" transform="translate(1314.391 314.635)">
      <path id="Path_491" data-name="Path 491" d="M24.185,25.755h-.012l-.035-.1-1.49-4.7-2.772,2.125L21,26.61l2.252,7.08h.023l1.987,6.283h3.453l-2.552-8.05L24.2,25.744M35.965,12.808l1.582,2.841,6.629-3.592v-3.7ZM14.922,19.715A9.935,9.935,0,0,0,24.935,9.852,9.926,9.926,0,0,0,14.922,0,9.933,9.933,0,0,0,4.909,9.852a9.943,9.943,0,0,0,10.013,9.863M11,22.464l-.9.092-.912.462-.728.739L.866,33.829.8,33.99A3.065,3.065,0,0,0,0,36.023a3.12,3.12,0,0,0,3.141,3.1,3.048,3.048,0,0,0,1.224-.243l.208-.023L4.9,38.6l.474-.381.474-.381L12.173,29.9l.37-.381.543-.277h.543l7.646,3.1-2.922-9.147-7.345-.716Zm23.134-6.629-.439-.843-.208-.219a3.579,3.579,0,0,0-6.017.346l-.173.231L23.78,19.715,27.3,30.745s4.92-8.8,6.318-11.353a3.951,3.951,0,0,0,.45-.912,3.9,3.9,0,0,0,.092-2.552l-.035-.092ZM32.281,3.257a4.326,4.326,0,1,0,4.389,4.32,4.358,4.358,0,0,0-4.389-4.32" fill="#002c5f"/>
    </g>
  </g>
</svg>
