<svg xmlns="http://www.w3.org/2000/svg" width="139.718" height="119.277" viewBox="0 0 139.718 119.277">
  <g id="icon-abs-blurb" transform="translate(0 -0.004)">
    <g id="Group_244" data-name="Group 244" transform="translate(0 0.004)">
      <path id="Path_544" data-name="Path 544" d="M21.436,15.18h7.377L39.782,48H32.734L30.7,41.259H19.27L17.158,48H10.33M21.025,35.637h7.953L25.056,22.694,21.025,35.637Z" transform="translate(17.997 26.437)" fill="#cecece"/>
      <path id="Path_545" data-name="Path 545" d="M44.717,18.725a8.5,8.5,0,0,1,1.426,4.991,7.661,7.661,0,0,1-1.453,4.826,7.031,7.031,0,0,1-2.358,1.865,7.119,7.119,0,0,1,3.592,2.879,8.98,8.98,0,0,1,1.207,4.8,9.845,9.845,0,0,1-1.4,5.238A8.7,8.7,0,0,1,43.538,45.9a8.481,8.481,0,0,1-3.51,1.645,22.236,22.236,0,0,1-4.388.439H21.6V15.16H36.655c3.784.055,6.472,1.234,8.035,3.51M27.852,20.836v7.294h7.541a5.973,5.973,0,0,0,3.291-.823A3.174,3.174,0,0,0,39.946,24.4a2.969,2.969,0,0,0-1.673-3.044,11.481,11.481,0,0,0-3.675-.521H27.852Zm0,12.751v8.83h7.569a7.08,7.08,0,0,0,3.154-.6c1.344-.713,2.029-2.084,2.029-4.141a3.58,3.58,0,0,0-1.974-3.538,7.208,7.208,0,0,0-3.1-.548H27.88Z" transform="translate(37.633 26.402)" fill="#cecece"/>
      <path id="Path_546" data-name="Path 546" d="M37.747,38.478A6.816,6.816,0,0,0,38.9,41.824c1.069,1.371,2.879,2.029,5.457,2.029a11.788,11.788,0,0,0,3.757-.521,3.8,3.8,0,0,0,2.77-3.812A2.859,2.859,0,0,0,49.511,37a14.067,14.067,0,0,0-4.278-1.536l-3.318-.8c-3.263-.768-5.539-1.618-6.773-2.523-2.112-1.508-3.181-3.867-3.181-7.075a9.649,9.649,0,0,1,3.071-7.322c2.057-1.92,5.046-2.907,8.995-2.907a13.394,13.394,0,0,1,8.446,2.742,9.956,9.956,0,0,1,3.675,7.98h-6.28A4.678,4.678,0,0,0,47.4,21.394a8.419,8.419,0,0,0-3.812-.823,6.76,6.76,0,0,0-4.031,1.069A3.4,3.4,0,0,0,38.021,24.6,2.805,2.805,0,0,0,39.5,27.208a17.439,17.439,0,0,0,4.113,1.371l5.4,1.344a13.341,13.341,0,0,1,5.347,2.358,8.194,8.194,0,0,1,2.8,6.691,9.742,9.742,0,0,1-3.291,7.459q-3.291,2.962-9.3,2.962c-4,0-7.294-.96-9.625-2.934a9.929,9.929,0,0,1-3.51-8.035" transform="translate(54.776 25.844)" fill="#cecece"/>
      <path id="Path_547" data-name="Path 547" d="M59.879,110.149a54.159,54.159,0,1,1,54.159-54.159,54.221,54.221,0,0,1-54.159,54.159m0-104.507a50.348,50.348,0,1,0,50.348,50.348A50.406,50.406,0,0,0,59.879,5.642" transform="translate(9.966 3.177)" fill="#cecece"/>
      <path id="Path_548" data-name="Path 548" d="M33.922,118.641a1.949,1.949,0,0,1-1.015-.274A69.514,69.514,0,0,1,0,59.079,69.046,69.046,0,0,1,32.029.368a1.894,1.894,0,1,1,2.057,3.181,66.033,66.033,0,0,0,.823,111.582,1.909,1.909,0,0,1,.6,2.605,1.885,1.885,0,0,1-1.618.9" transform="translate(0 0.088)" fill="#cecece"/>
      <path id="Path_549" data-name="Path 549" d="M39.452,119.281a1.884,1.884,0,0,1-.96-3.51A65.647,65.647,0,0,0,70.467,59.2,65.015,65.015,0,0,0,39.946,3.5,1.934,1.934,0,0,1,39.37.871,1.929,1.929,0,0,1,42,.295,69.591,69.591,0,0,1,74.279,59.171a70.222,70.222,0,0,1-33.812,59.808,1.79,1.79,0,0,1-.987.274" transform="translate(65.439 -0.004)" fill="#cecece"/>
    </g>
  </g>
</svg>
