<svg xmlns="http://www.w3.org/2000/svg" width="54.671" height="46.876" viewBox="0 0 54.671 46.876">
  <metadata><?xpacket begin="﻿" id="W5M0MpCehiHzreSzNTczkc9d"?>
<x:xmpmeta xmlns:x="adobe:ns:meta/" x:xmptk="Adobe XMP Core 8.0-c001 1.000000, 0000/00/00-00:00:00        ">
   <rdf:RDF xmlns:rdf="http://www.w3.org/1999/02/22-rdf-syntax-ns#">
      <rdf:Description rdf:about=""
            xmlns:dc="http://purl.org/dc/elements/1.1/"
            xmlns:epsilon="http://epsilon.info/dam/1.0">
         <dc:format>image/svg+xml</dc:format>
         <dc:modified>2025-11-13T03:14:07.144Z</dc:modified>
         <epsilon:expirationstatus>NO</epsilon:expirationstatus>
      </rdf:Description>
   </rdf:RDF>
</x:xmpmeta>
                                                                                                    
                                                                                                    
                                                                                                    
                                                                                                    
                                                                                                    
                                                                                                    
                                                                                                    
                                                                                                    
                                                                                                    
                                                                                                    
                                                                                                    
                                                                                                    
                                                                                                    
                                                                                                    
                                                                                                    
                                                                                                    
                                                                                                    
                                                                                                    
                                                                                                    
                                                                                                    
                           
<?xpacket end="w"?></metadata>
<g id="_3-anti-lock" data-name="3-anti-lock" transform="translate(-488.007 -311.156)">
    <g id="icon" transform="translate(488.507 311.712)">
      <path id="Path_492" data-name="Path 492" d="M14.6,15.18H17.43l4.214,12.609H18.936l-.78-2.591H13.764l-.811,2.591H10.33m4.108-4.751h3.055l-1.506-4.972-1.549,4.972Z" transform="translate(0.552 0.807)" fill="#002c5f"/>
      <path id="Path_493" data-name="Path 493" d="M30.48,16.529a3.264,3.264,0,0,1,.548,1.917A2.943,2.943,0,0,1,30.47,20.3a2.7,2.7,0,0,1-.906.716,2.735,2.735,0,0,1,1.38,1.106,3.45,3.45,0,0,1,.464,1.843,3.782,3.782,0,0,1-.537,2.012,3.343,3.343,0,0,1-.843.99,3.258,3.258,0,0,1-1.348.632,8.542,8.542,0,0,1-1.685.169H21.6V15.16h5.783a3.548,3.548,0,0,1,3.086,1.348M24,17.341v2.8h2.9a2.3,2.3,0,0,0,1.264-.316,1.219,1.219,0,0,0,.485-1.117A1.14,1.14,0,0,0,28,17.541a4.41,4.41,0,0,0-1.412-.2H24Zm0,4.9v3.392h2.907a2.72,2.72,0,0,0,1.211-.232,1.631,1.631,0,0,0,.78-1.591,1.375,1.375,0,0,0-.758-1.359,2.769,2.769,0,0,0-1.19-.211H24.012Z" transform="translate(1.154 0.806)" fill="#002c5f"/>
      <path id="Path_494" data-name="Path 494" d="M33.863,23.92a2.618,2.618,0,0,0,.442,1.285,2.5,2.5,0,0,0,2.1.78,4.528,4.528,0,0,0,1.443-.2,1.461,1.461,0,0,0,1.064-1.464,1.1,1.1,0,0,0-.527-.969,5.4,5.4,0,0,0-1.643-.59l-1.275-.305a7.763,7.763,0,0,1-2.6-.969,3.115,3.115,0,0,1-1.222-2.718,3.707,3.707,0,0,1,1.18-2.813,4.883,4.883,0,0,1,3.455-1.117,5.145,5.145,0,0,1,3.244,1.053,3.825,3.825,0,0,1,1.412,3.065H38.519a1.8,1.8,0,0,0-.948-1.6,3.234,3.234,0,0,0-1.464-.316,2.6,2.6,0,0,0-1.549.411,1.306,1.306,0,0,0-.59,1.138,1.078,1.078,0,0,0,.569,1,6.7,6.7,0,0,0,1.58.527l2.075.516a5.125,5.125,0,0,1,2.054.906,3.148,3.148,0,0,1,1.074,2.57,3.742,3.742,0,0,1-1.264,2.865,5.155,5.155,0,0,1-3.571,1.138,5.6,5.6,0,0,1-3.7-1.127A3.814,3.814,0,0,1,31.44,23.9" transform="translate(1.679 0.788)" fill="#002c5f"/>
      <path id="Path_495" data-name="Path 495" d="M26.525,43.44a20.8,20.8,0,1,1,20.8-20.8,20.829,20.829,0,0,1-20.8,20.8m0-40.145A19.341,19.341,0,1,0,45.865,22.635,19.363,19.363,0,0,0,26.525,3.294" transform="translate(0.305 0.094)" fill="#002c5f" stroke="#002c5f" stroke-width="1"/>
      <path id="Path_496" data-name="Path 496" d="M13.031,45.61a.749.749,0,0,1-.39-.105A26.7,26.7,0,0,1,0,22.73,26.523,26.523,0,0,1,12.3.176a.728.728,0,1,1,.79,1.222,25.366,25.366,0,0,0,.316,42.863.733.733,0,0,1,.232,1,.724.724,0,0,1-.622.348" transform="translate(0 -0.001)" fill="#002c5f" stroke="#002c5f" stroke-width="1"/>
      <path id="Path_497" data-name="Path 497" d="M38.287,45.823a.724.724,0,0,1-.369-1.348A25.217,25.217,0,0,0,50.2,22.743,24.975,24.975,0,0,0,38.476,1.348.743.743,0,0,1,38.255.337.741.741,0,0,1,39.267.116a26.82,26.82,0,0,1-.59,45.591.688.688,0,0,1-.379.105" transform="translate(2.006 -0.004)" fill="#002c5f" stroke="#002c5f" stroke-width="1"/>
    </g>
  </g>
</svg>
