<svg xmlns="http://www.w3.org/2000/svg" width="49.296" height="38.781" viewBox="0 0 49.296 38.781">
  <metadata><?xpacket begin="﻿" id="W5M0MpCehiHzreSzNTczkc9d"?>
<x:xmpmeta xmlns:x="adobe:ns:meta/" x:xmptk="Adobe XMP Core 8.0-c001 1.000000, 0000/00/00-00:00:00        ">
   <rdf:RDF xmlns:rdf="http://www.w3.org/1999/02/22-rdf-syntax-ns#">
      <rdf:Description rdf:about=""
            xmlns:dc="http://purl.org/dc/elements/1.1/"
            xmlns:epsilon="http://epsilon.info/dam/1.0">
         <dc:format>image/svg+xml</dc:format>
         <dc:modified>2025-11-13T03:14:00.228Z</dc:modified>
         <epsilon:expirationstatus>NO</epsilon:expirationstatus>
      </rdf:Description>
   </rdf:RDF>
</x:xmpmeta>
                                                                                                    
                                                                                                    
                                                                                                    
                                                                                                    
                                                                                                    
                                                                                                    
                                                                                                    
                                                                                                    
                                                                                                    
                                                                                                    
                                                                                                    
                                                                                                    
                                                                                                    
                                                                                                    
                                                                                                    
                                                                                                    
                                                                                                    
                                                                                                    
                                                                                                    
                                                                                                    
                           
<?xpacket end="w"?></metadata>
<g id="mdps" transform="translate(0 0)">
    <g id="Group_214" data-name="Group 214" transform="translate(0 0)">
      <path id="Path_518" data-name="Path 518" d="M38.522,16.026l-.363-1.647-.5-1.6C29.231-8.31-1.089-1.708.025,20.968L.243,22.64l.363,1.672C7.063,46.177,38.05,42.228,38.825,19.418v-.024l-.1-1.7M30.781,30.647l-2.459,2.035a15.955,15.955,0,0,1-20.4-2.12L5.961,28.079,16.112,23.9l1.5.763,1.623.266,1.647-.266,1.429-.715,10.418,4.276-1.962,2.435Zm4.627-10.963-.145,1.672-.279,1.672-10.442-4.3-.436-1.405a5.354,5.354,0,0,0-9.727-.073l-.424,1.429-10.2,4.179-.024-.1C.231,1.781,29.619-4.6,35.082,16.1l.339,3.307v.279Z" transform="translate(0.005 0)" fill="#a3a3a3"/>
      <path id="Path_519" data-name="Path 519" d="M34.93.61V9.756l.485,16.22h6.008l.485-16.22V.61" transform="translate(7.388 0.129)" fill="#a3a3a3"/>
      <rect id="Rectangle_100" data-name="Rectangle 100" width="6.784" height="6.808" transform="translate(42.415 31.241)" fill="#a3a3a3"/>
    </g>
  </g>
</svg>
