<svg xmlns="http://www.w3.org/2000/svg" width="130.642" height="102.777" viewBox="0 0 130.642 102.777">
  <g id="icon-mdps-blurb" transform="translate(0.005)">
    <g id="Group_248" data-name="Group 248" transform="translate(-0.005 0)">
      <path id="Path_570" data-name="Path 570" d="M102.1,42.472l-.963-4.366-1.316-4.238C77.475-22.023-2.879-4.527.075,55.57L.652,60l.963,4.43c17.111,57.946,99.23,47.48,101.285-12.97V51.4l-.257-4.494M81.584,81.221l-6.517,5.393A42.284,42.284,0,0,1,21.006,81l-5.2-6.581,26.9-11.076,3.981,2.022,4.3.706,4.366-.706,3.788-1.894L86.753,74.8l-5.2,6.453ZM93.848,52.167l-.385,4.43-.738,4.43-27.673-11.4L63.9,45.907c-5.329-11.076-20.225-11.14-25.779-.193L36.993,49.5,9.962,60.578,9.9,60.322C.62,4.719,78.5-12.2,92.981,42.665l.9,8.764v.738Z" transform="translate(0.005)" fill="#cecece"/>
      <path id="Path_571" data-name="Path 571" d="M34.93.61V24.848l1.284,42.986H52.137l1.284-42.986V.61" transform="translate(77.221 1.348)" fill="#cecece"/>
      <rect id="Rectangle_107" data-name="Rectangle 107" width="17.978" height="18.042" transform="translate(112.408 82.794)" fill="#cecece"/>
    </g>
  </g>
</svg>
