<svg xmlns="http://www.w3.org/2000/svg" width="49.296" height="38.781" viewBox="0 0 49.296 38.781">
  <g id="_3-mdps" data-name="3-mdps" transform="translate(-1403.956 -314.827)">
    <g id="icon" transform="translate(1403.956 314.827)">
      <g id="Group_214" data-name="Group 214" transform="translate(0 0)">
        <path id="Path_518" data-name="Path 518" d="M38.522,16.026l-.363-1.647-.5-1.6C29.231-8.31-1.089-1.708.025,20.968L.243,22.64l.363,1.672C7.063,46.177,38.05,42.228,38.825,19.418v-.024l-.1-1.7M30.781,30.647l-2.459,2.035a15.955,15.955,0,0,1-20.4-2.12L5.961,28.079,16.112,23.9l1.5.763,1.623.266,1.647-.266,1.429-.715,10.418,4.276-1.962,2.435Zm4.627-10.963-.145,1.672-.279,1.672-10.442-4.3-.436-1.405a5.354,5.354,0,0,0-9.727-.073l-.424,1.429-10.2,4.179-.024-.1C.231,1.781,29.619-4.6,35.082,16.1l.339,3.307v.279Z" transform="translate(0.005 0)" fill="#002c5f"/>
        <path id="Path_519" data-name="Path 519" d="M34.93.61V9.756l.485,16.22h6.008l.485-16.22V.61" transform="translate(7.388 0.129)" fill="#002c5f"/>
        <rect id="Rectangle_100" data-name="Rectangle 100" width="6.784" height="6.808" transform="translate(42.415 31.241)" fill="#002c5f"/>
      </g>
    </g>
  </g>
</svg>
