<svg xmlns="http://www.w3.org/2000/svg" width="87.322" height="131.371" viewBox="0 0 87.322 131.371">
  <metadata><?xpacket begin="﻿" id="W5M0MpCehiHzreSzNTczkc9d"?>
<x:xmpmeta xmlns:x="adobe:ns:meta/" x:xmptk="Adobe XMP Core 8.0-c001 1.000000, 0000/00/00-00:00:00        ">
   <rdf:RDF xmlns:rdf="http://www.w3.org/1999/02/22-rdf-syntax-ns#">
      <rdf:Description rdf:about=""
            xmlns:dc="http://purl.org/dc/elements/1.1/"
            xmlns:epsilon="http://epsilon.info/dam/1.0">
         <dc:format>image/svg+xml</dc:format>
         <dc:modified>2025-11-13T03:13:59.091Z</dc:modified>
         <epsilon:expirationstatus>NO</epsilon:expirationstatus>
      </rdf:Description>
   </rdf:RDF>
</x:xmpmeta>
                                                                                                    
                                                                                                    
                                                                                                    
                                                                                                    
                                                                                                    
                                                                                                    
                                                                                                    
                                                                                                    
                                                                                                    
                                                                                                    
                                                                                                    
                                                                                                    
                                                                                                    
                                                                                                    
                                                                                                    
                                                                                                    
                                                                                                    
                                                                                                    
                                                                                                    
                                                                                                    
                           
<?xpacket end="w"?></metadata>
<g id="icon-esc-off-blurb" transform="translate(0 0.01)">
    <g id="Group_259" data-name="Group 259" transform="translate(0 -0.01)">
      <path id="Path_620" data-name="Path 620" d="M4.131,14.122l2.681,1.027L10.6,15.7l-.977,1.1-.426.977C7.438,22.892,5.409,28.855,7.839,34.092l.626.677v8.594l.251,1.1.852,1.027.852.251h6.239l.6-.125,1.027-.9.426-1.478V41.759H58.4l.977.05v1.478l.05.777.727,1.228.551.351.6.2h6.414l.551-.125.977-.727.376-1.153V41.584l-.05-6.79.727-.8.677-1.654.175-3.708V25.272l-1.278-4.159L68.9,17.805l-.376-.9L67.6,15.8l3.533-.551,2.806-1.1.376-.6.05-.9-.426-1.228h-.05l-1.027-.677-1.153-.376-4.285-.5H64.016l-2-3.784L59.506,2.546C56.524-.636,51.237,1.118,47.428.165L43.094.04,38.759-.01,34.5.04,30.164.216l-4.335.3-3.859.3-.977.125L19.039,2.22,16.484,5.7,14.4,9.486l-.125.376H13.051l-6.715.426-1.528.476-.551.426L3.83,12.418l-.05.677.175.752m14.733-.626,2.33-5.813L22.6,5.152l7.993-.6,8.244-.05,8.244.05,7.943.6,2.2,3.533,2.506,6.966H17.937l.727-2.43Z" transform="translate(5.691 0.01)" fill="#cecece"/>
      <path id="Path_621" data-name="Path 621" d="M11,56.294l3.483,1.278H26.56l-9.572-7.943-.877-.852-.476-1.027-.05-.551.351-1.3,1.052-1.278,9.271-3.483L41.293,35.4l2.932-2.255.852-1.453.3-1.478-.125-1.4-.476-1.153-.376-.5-2.506-1.528-8.619-5.563-2.255-.677-3.232-.226-7.091.376.551.476L30.368,27.7l.651,1.052.2,1.027-1.178,1.328-1.954,1-3.959,1.7-4.109,1.4-4.209,1.1-3.533.9L6.54,39.13,4.034,40.408.8,42.863l-.3.476L0,46.146.6,48.1l1.1,1.779,2.806,2.2" transform="translate(0 28.873)" fill="#cecece"/>
      <path id="Path_622" data-name="Path 622" d="M62,28.807l-.426-1.178-.451-.476-2.43-1.528-8.619-5.563-2.305-.677-3.182-.226-7.141.376.551.476,9.1,7.692.677.977.175,1.1-1.1,1.328-2.13,1.052-3.984,1.7-4.084,1.353-4.209,1.153-3.558.852-5.613,1.9-2.506,1.278-3.232,2.43-.3.5-.476,2.806.6,1.954L18.5,49.879l4.585,3.483,4.635,2.856,3.483,1.353h12.1l-9.547-7.943-.852-.852-.476-1.027L32.31,47.2l.175-.8,1.278-1.779,9.246-3.483L58.018,35.4l3.007-2.255.777-1.453.3-1.478" transform="translate(25.22 28.873)" fill="#cecece"/>
      <path id="Path_623" data-name="Path 623" d="M29.77,47.255,28.792,43.3l-1.654-2.255-1.654-1.228-1.879-.6-4.285-.6-3.784-.05v-.05l-4.285.175-3.784.551C1.23,40.79,1.306,46.328,1.13,51.589l-.05,3.433v1.954l.05,4.285.251,3.433L2.358,68.6l1.579,2.255,1.7,1.228,1.829.551v.05l4.285.551,3.784.125,4.335-.125,3.733-.551v-.05l.927-.2,3.358-2.38L29.243,67.5l.551-2.806.251-4.335.05-4.335v-.05l-.05-4.285m-5.537,7.467-.426,4.961-.8,2.13-1.654,1.579-1.027.3-.727.125-4.335.3-3.784-.175L9.5,67.7,7.92,66.3l-.852-2.2-.3-2.631-.125-5.613V49.61l.5-2.506L9.1,44.3l2-.8,4.46-.3,4.034.175,2.305.8,1.7,2,.8,3.232.125,6.414v3.307Z" transform="translate(1.626 58.008)" fill="#cecece"/>
      <path id="Path_624" data-name="Path 624" d="M14.6,72.862h5.437V58.154H36.1V53.819H20.037V43.2H37.076V38.61H14.6" transform="translate(21.982 58.158)" fill="#cecece"/>
      <path id="Path_625" data-name="Path 625" d="M25.23,72.862h5.412V58.154H46.7V53.819H30.642V43.2H47.681V38.61H25.23" transform="translate(37.987 58.158)" fill="#cecece"/>
    </g>
  </g>
</svg>
