<svg xmlns="http://www.w3.org/2000/svg" width="104.819" height="103.537" viewBox="0 0 104.819 103.537">
  <metadata><?xpacket begin="﻿" id="W5M0MpCehiHzreSzNTczkc9d"?>
<x:xmpmeta xmlns:x="adobe:ns:meta/" x:xmptk="Adobe XMP Core 8.0-c001 1.000000, 0000/00/00-00:00:00        ">
   <rdf:RDF xmlns:rdf="http://www.w3.org/1999/02/22-rdf-syntax-ns#">
      <rdf:Description rdf:about=""
            xmlns:dc="http://purl.org/dc/elements/1.1/"
            xmlns:epsilon="http://epsilon.info/dam/1.0">
         <dc:format>image/svg+xml</dc:format>
         <dc:modified>2025-11-13T03:13:58.078Z</dc:modified>
         <epsilon:expirationstatus>NO</epsilon:expirationstatus>
      </rdf:Description>
   </rdf:RDF>
</x:xmpmeta>
                                                                                                    
                                                                                                    
                                                                                                    
                                                                                                    
                                                                                                    
                                                                                                    
                                                                                                    
                                                                                                    
                                                                                                    
                                                                                                    
                                                                                                    
                                                                                                    
                                                                                                    
                                                                                                    
                                                                                                    
                                                                                                    
                                                                                                    
                                                                                                    
                                                                                                    
                                                                                                    
                           
<?xpacket end="w"?></metadata>
<g id="icon-esc-blurb" transform="translate(-0.013 -0.03)">
    <g id="Group_258" data-name="Group 258" transform="translate(0.013 0.03)">
      <path id="Path_617" data-name="Path 617" d="M72.665,32.485l-.577-1.428-.494-.522-2.966-1.868L58.357,22.076l-2.719-.824-3.9-.3-8.569.384.6.6.934.632,10.052,8.624.8,1.181.247,1.291-1.346,1.675-.879.412-3.927,1.813-4.092,1.593L41.384,40.5l-4.2,1.044h-.055l-4.257,1.126-6.729,2.279-3.021,1.483L19.3,49.4l-.357.549-.577,3.323.687,2.362,1.428,2.142,5.548,4.2,5.548,3.46,2.774,1.291,1.346.3H50.255l-11.48-9.557L37.54,56.131l-.467-1.538.165-1.016,1.538-2.087,1.922-.851,9.2-3.351,1.895-.659,16.121-6.179,3.515-2.774.961-1.73.384-1.785" transform="translate(32.044 36.504)" fill="#cecece"/>
      <path id="Path_618" data-name="Path 618" d="M54.135,35.928l.384-1.785-.11-1.648-.549-1.428-.494-.549L50.4,28.677,40.1,22.059l-2.719-.851-4.01-.247-8.459.357.6.6.934.632L36.5,31.176l.879,1.236.192,1.236L36.228,35.3l-.851.439L31.422,37.52l-4.065,1.593-4.147,1.346L18.954,41.5,14.7,42.6C-5.6,48.066-3.731,56.333,13.406,65.423l4.065,1.538H32.026L20.547,57.4,19.5,56.36l-.549-1.236-.055-.6.357-1.538,1.291-1.538,11.1-4.2,1.922-.687,16.094-6.179L53.173,37.6" transform="translate(-0.013 36.521)" fill="#cecece"/>
      <path id="Path_619" data-name="Path 619" d="M4.639,16.838l2.636,1.126,5.108.8-1.236,1.373-.494,1.1c-1.84,5.41-5.246,15.462-.851,20.405V51.881l.11.879.8,1.483.687.439.742.137h7.47l.742-.137,1.236-1.1.494-1.813v-1.7H70.8v1.84l.137.934.851,1.483.687.439.742.192h7.635l.687-.137,1.181-.851.439-1.4V49.9L83.1,41.775l.851-.989.8-1.977L85,34.359l-.055-4.065-1.428-4.916-1.291-4.01-.439-1.044L80.8,18.98l4.2-.687L88.321,17l.192-.192.384-1.236L88.4,13.789l-1.346-.851L85.712,12.5l-4.5-.577-4.751-.055L74.424,8.049,72.007,4.424,70.717,2.749l-1.84-1.236-1.868-.494v.055L62.7.634,58.3.332,53.936.167,49.57.03H45.2L40.891.085,36.525.222,32.158.469,27.764.854l-1.675.192-1.538.3L22.573,2.776,19.415,7.033l-2.636,4.861H14l-6.729.494-1.785.632-.687.494-.549,1.538-.055.742.247.879M23.013,12.91l2.279-4.861L26.72,6.072l6.234-.549,13.21-.192,13.21.192,6.234.549L68,9.834l1.236,2.774,1.977,6.124H21.09l1.922-5.795Z" transform="translate(7.298 -0.03)" fill="#cecece"/>
    </g>
  </g>
</svg>
