<svg xmlns="http://www.w3.org/2000/svg" width="40.607" height="61.09" viewBox="0 0 40.607 61.09">
  <metadata><?xpacket begin="﻿" id="W5M0MpCehiHzreSzNTczkc9d"?>
<x:xmpmeta xmlns:x="adobe:ns:meta/" x:xmptk="Adobe XMP Core 8.0-c001 1.000000, 0000/00/00-00:00:00        ">
   <rdf:RDF xmlns:rdf="http://www.w3.org/1999/02/22-rdf-syntax-ns#">
      <rdf:Description rdf:about=""
            xmlns:dc="http://purl.org/dc/elements/1.1/"
            xmlns:epsilon="http://epsilon.info/dam/1.0">
         <dc:format>image/svg+xml</dc:format>
         <dc:modified>2025-11-13T03:13:55.978Z</dc:modified>
         <epsilon:expirationstatus>NO</epsilon:expirationstatus>
      </rdf:Description>
   </rdf:RDF>
</x:xmpmeta>
                                                                                                    
                                                                                                    
                                                                                                    
                                                                                                    
                                                                                                    
                                                                                                    
                                                                                                    
                                                                                                    
                                                                                                    
                                                                                                    
                                                                                                    
                                                                                                    
                                                                                                    
                                                                                                    
                                                                                                    
                                                                                                    
                                                                                                    
                                                                                                    
                                                                                                    
                                                                                                    
                           
<?xpacket end="w"?></metadata>
<g id="_3-esc-off" data-name="3-esc-off" transform="translate(-1776.799 -301.332)">
    <g id="icon" transform="translate(1766.344 313.49)">
      <path id="Path_620" data-name="Path 620" d="M3.943,6.562l1.247.478L6.949,7.3l-.454.513-.2.454c-.816,2.377-1.759,5.15-.629,7.585l.291.315v4l.117.513.4.478.4.117h2.9l.28-.058.478-.419.2-.687v-.687H29.181l.454.023v.687l.023.361.338.571.256.163.28.093h2.983l.256-.058.454-.338.175-.536V19.332l-.023-3.158.338-.373.315-.769.082-1.724V11.747l-.594-1.934-.454-1.538-.175-.419-.431-.513L35.1,7.086l1.3-.513.175-.28.023-.419L36.4,5.3h-.023L35.9,4.989l-.536-.175-1.992-.233H31.791l-.932-1.759L29.693,1.178C28.307-.3,25.848.514,24.077.072L22.062.013,20.046-.01,18.065.013,16.049.095l-2.016.14-1.794.14-.454.058-.909.594L9.687,2.647,8.72,4.406l-.058.175H8.091l-3.123.2L4.258,5,4,5.2l-.2.571-.023.315.082.35m6.851-.291,1.084-2.7L12.53,2.39l3.717-.28,3.833-.023,3.833.023,3.694.28,1.025,1.643L29.8,7.272H10.363l.338-1.13Z" transform="translate(11.08 -12.148)" fill="#002c5f"/>
      <path id="Path_621" data-name="Path 621" d="M5.115,36.428l1.62.594h5.616L7.9,33.328l-.408-.4-.221-.478L7.247,32.2l.163-.606L7.9,31l4.311-1.62L19.2,26.71l1.363-1.049.4-.676.14-.687-.058-.652-.221-.536-.175-.233-1.165-.711-4.008-2.587-1.049-.315-1.5-.1-3.3.175.256.221,4.241,3.577.3.489.093.478-.548.618-.909.466-1.841.792-1.911.652-1.957.513-1.643.419-2.668.886-1.165.594-1.5,1.142-.14.221L0,31.709l.28.909.513.827L2.1,34.47" transform="translate(10.455 -8.982)" fill="#002c5f"/>
      <path id="Path_622" data-name="Path 622" d="M37.793,23.646l-.2-.548-.21-.221-1.13-.711-4.008-2.587-1.072-.315-1.48-.1-3.321.175.256.221,4.23,3.577.315.454.082.513-.513.618-.99.489L27.9,26l-1.9.629-1.957.536-1.655.4-2.61.886-1.165.594-1.5,1.13-.14.233-.221,1.3.28.909.536.827,2.132,1.62,2.156,1.328,1.62.629H29.1l-4.439-3.694-.4-.4-.221-.478-.058-.256.082-.373L24.662,31l4.3-1.62L35.94,26.71l1.4-1.049.361-.676.14-.687" transform="translate(13.223 -8.982)" fill="#002c5f"/>
      <path id="Path_623" data-name="Path 623" d="M14.421,42.576l-.454-1.841L13.2,39.687l-.769-.571-.874-.28-1.992-.28L7.8,38.533V38.51l-1.992.082-1.759.256c-2.9.722-2.866,3.3-2.948,5.744l-.023,1.6V47.1L1.1,49.09l.117,1.6L1.674,52.5l.734,1.049.792.571.851.256V54.4l1.992.256,1.759.058,2.016-.058,1.736-.256V54.38l.431-.093,1.561-1.107.629-1.188.256-1.305.117-2.016.023-2.016v-.023l-.023-1.992m-2.575,3.472-.2,2.307-.373.99-.769.734-.478.14-.338.058L7.8,52.48,6.044,52.4l-1.049-.315-.734-.652-.4-1.025-.14-1.223-.058-2.61v-2.9L3.9,42.507l.909-1.3.932-.373,2.074-.14,1.876.082,1.072.373.792.932.373,1.5.058,2.983V48.1Z" transform="translate(10.633 -5.786)" fill="#002c5f"/>
      <path id="Path_624" data-name="Path 624" d="M14.6,54.538h2.528V47.7H24.6V45.683H17.128v-4.94h7.923V38.61H14.6" transform="translate(12.867 -5.769)" fill="#002c5f"/>
      <path id="Path_625" data-name="Path 625" d="M25.23,54.538h2.517V47.7h7.469V45.683H27.747v-4.94H35.67V38.61H25.23" transform="translate(14.623 -5.769)" fill="#002c5f"/>
    </g>
  </g>
</svg>
