<svg xmlns="http://www.w3.org/2000/svg" width="47.946" height="47.36" viewBox="0 0 47.946 47.36">
  <metadata><?xpacket begin="﻿" id="W5M0MpCehiHzreSzNTczkc9d"?>
<x:xmpmeta xmlns:x="adobe:ns:meta/" x:xmptk="Adobe XMP Core 8.0-c001 1.000000, 0000/00/00-00:00:00        ">
   <rdf:RDF xmlns:rdf="http://www.w3.org/1999/02/22-rdf-syntax-ns#">
      <rdf:Description rdf:about=""
            xmlns:dc="http://purl.org/dc/elements/1.1/"
            xmlns:epsilon="http://epsilon.info/dam/1.0">
         <dc:format>image/svg+xml</dc:format>
         <dc:modified>2025-11-13T03:14:06.766Z</dc:modified>
         <epsilon:expirationstatus>NO</epsilon:expirationstatus>
      </rdf:Description>
   </rdf:RDF>
</x:xmpmeta>
                                                                                                    
                                                                                                    
                                                                                                    
                                                                                                    
                                                                                                    
                                                                                                    
                                                                                                    
                                                                                                    
                                                                                                    
                                                                                                    
                                                                                                    
                                                                                                    
                                                                                                    
                                                                                                    
                                                                                                    
                                                                                                    
                                                                                                    
                                                                                                    
                                                                                                    
                                                                                                    
                           
<?xpacket end="w"?></metadata>
<g id="esc" transform="translate(-0.013 -0.03)">
    <path id="Path_617" data-name="Path 617" d="M43.206,26.226l-.264-.653-.226-.239-1.357-.854-4.7-3.015-1.244-.377-1.784-.138-3.919.176.276.276.427.289,4.6,3.945.364.54.113.59-.616.766-.4.188-1.8.829-1.872.729-1.909.616-1.922.477H26.95L25,30.887l-3.078,1.043-1.382.678L18.8,33.965l-.163.251-.264,1.52.314,1.08.653.98,2.538,1.922L24.412,41.3l1.269.59.616.138h6.658L27.7,37.658l-.565-.616-.214-.7L27,35.874l.7-.955.879-.389L32.792,33l.867-.3,7.374-2.827L42.64,28.6l.44-.791.176-.817" transform="translate(4.703 5.36)" fill="#a3a3a3"/>
    <path id="Path_618" data-name="Path 618" d="M24.769,27.806l.176-.817-.05-.754-.251-.653-.226-.251-1.357-.842L18.35,21.462l-1.244-.389-1.834-.113-3.869.163.276.276.427.289,4.6,3.945.4.565.088.565-.616.754-.389.2-1.809.817-1.859.729-1.9.616-1.947.477-1.947.5C-2.554,33.359-1.7,37.14,6.14,41.3L8,42h6.658L9.406,37.63l-.477-.477-.251-.565-.025-.276.163-.7.59-.7,5.075-1.922.879-.314,7.362-2.827,1.608-1.269" transform="translate(0 5.363)" fill="#a3a3a3"/>
    <path id="Path_619" data-name="Path 619" d="M4.4,7.718l1.206.515L7.944,8.6l-.565.628-.226.5c-.842,2.475-2.4,7.073-.389,9.334v4.686l.05.4.364.678.314.2.339.063h3.417l.339-.063.565-.5.226-.829v-.779H34.664v.842l.063.427.389.678.314.2.339.088h3.492l.314-.063.54-.389.2-.641V22.843l-.025-3.718.389-.452.364-.9.113-2.035-.025-1.859-.653-2.249-.59-1.834-.2-.477L39.236,8.7l1.922-.314,1.52-.59.088-.088.176-.565-.226-.817L42.1,5.934l-.616-.2-2.06-.264-2.173-.025L36.322,3.7,35.216,2.04l-.59-.766L33.784.708,32.93.482V.507l-1.972-.2L28.948.168l-2-.075-2-.063h-2L20.983.055l-2,.063-2,.113-2.01.176-.766.088-.7.138-.9.653L11.16,3.233,9.954,5.457H8.685l-3.078.226-.817.289L4.476,6.2l-.251.7L4.2,7.241l.113.4m8.492-1.721L13.848,3.7l.653-.9,2.852-.251L23.4,2.455l6.042.088,2.852.251,1.093,1.721.565,1.269.9,2.8H11.926l.879-2.651Z" transform="translate(1.072)" fill="#a3a3a3"/>
  </g>
</svg>
